<svg xmlns="http://www.w3.org/2000/svg" xmlns:xlink="http://www.w3.org/1999/xlink" viewBox="0 0 488.9 402.46"><defs><style>.cls-1,.cls-8{fill:#4182c3;}.cls-1{opacity:0.1;}.cls-2{fill:url(#linear-gradient);}.cls-3{fill:#eeedee;opacity:0;}.cls-4,.cls-5,.cls-6,.cls-7{fill:#f6dfeb;}.cls-4{opacity:0.26;}.cls-5{opacity:0.23;}.cls-6{opacity:0.39;}</style><linearGradient id="linear-gradient" x1="332.04" y1="291.16" x2="198.44" y2="59.76" gradientUnits="userSpaceOnUse"><stop offset="0" stop-color="#e2e43b"/><stop offset="0.48" stop-color="#f15c3f"/><stop offset="0.53" stop-color="#f04c57"/><stop offset="0.59" stop-color="#ef3c6e"/><stop offset="0.65" stop-color="#ee327e"/><stop offset="0.71" stop-color="#ed2b88"/><stop offset="0.8" stop-color="#ed298b"/></linearGradient></defs><title>diamond-geezer-badge</title><g id="Layer_2" data-name="Layer 2"><g id="Layer_1-2" data-name="Layer 1"><polygon class="cls-1" points="79.83 53.37 59.07 233.75 123.49 314.62 209.38 381.18 244.04 396.93 309.58 361.86 383.31 296.01 432.69 214.41 419.81 135.64 407.64 50.51 249.46 4.7 79.83 53.37"/><polygon class="cls-2" points="369.23 136.33 296.82 65.51 188.48 65.51 116.07 136.33 242.65 342.77 369.23 136.33"/><polygon class="cls-3" points="369.23 136.33 296.82 65.51 188.48 65.51 116.07 136.33 242.65 342.77 369.23 136.33"/><polygon class="cls-4" points="175.8 233.75 369.23 136.33 116.07 136.33 175.8 233.75"/><polygon class="cls-5" points="296.82 65.51 306.59 136.87 242.65 342.77 182.64 136.33 188.48 65.51 296.82 65.51"/><polygon class="cls-6" points="176.17 77.55 369.23 136.33 193.51 262.63 116.07 136.33 176.17 77.55"/><path class="cls-7" d="M305.72,136.87h-191L189.8,64.23l-6.5,68.43,59.34-68,62.54,69.95-9.8-70.49,75.19,72.72h-64m-.15-1.08h61.45l-71-68.67Zm-124.43,0H304.76L242.65,66.32Zm-64.6,0h64.51l6.52-68.74Z"/><polygon class="cls-7" points="296.03 65.31 189.8 65.31 189.8 64.22 295.38 64.15 296.03 65.31"/><polygon class="cls-7" points="242.65 343.81 114.73 136.87 115.81 135.89 242.65 341.74 369.23 136.33 370.56 136.87 242.65 343.81"/><polygon class="cls-7" points="242.63 343.62 181.48 136.22 182.64 136.33 242.66 339.87 305.86 135.64 306.59 136.87 242.63 343.62"/><path class="cls-8" d="M477.46,169.89a94,94,0,0,0,11.44,2.25c-10.44,12.29-19.36,24.18-29.74,34.61-9.83,9.87-13,20-9.91,33.8,3.2,14.2,3.68,29,5.46,44.42-10.36-2.81-19.92-5.45-29.51-8-5.44-1.43-11.68-4.86-16.19-3.34s-7.27,8-10.6,12.5C361.3,336,313.52,372.57,257.82,399.29c-9.12,4.38-18.27,4.14-27.34-.23C171.93,370.87,122.37,331.79,84.9,278.25c-3.26-4.67-6.29-5.49-11.46-4C60.79,278,48,281.24,34.28,284.92c1.41-12.75,2.7-24.86,4.1-37,.7-6,1-12.11,2.53-17.91,1.64-6.28-.38-10.53-4.5-15.07C25.07,202.44,14.16,189.52,3.1,176.74c-.9-1-1.68-2.17-3.1-4,13.57-3.73,26.48-7.3,39.4-10.84,2.91-.8,5.84-1.52,8.78-2.23,11.91-2.88,11.74-2.89,13-14.75q4.66-43.8,9.63-87.58C72,47.11,77.86,40.54,87.89,38c47.92-12.27,95.78-24.8,143.84-36.49a56.11,56.11,0,0,1,25.55,0C305.33,13.2,353.16,25.88,401.13,38c10.51,2.66,15.84,9.63,17,19.46,3.68,30.76,6.85,61.57,10,92.39.51,5,1.78,7.56,7.39,8.8,12.52,2.77,18,4.07,30.36,7.7C467.32,166.75,477.46,169.89,477.46,169.89ZM67,211.4c-.2,11.06,2.16,17.61,11.71,33.73,37.11,62.61,89.1,108.85,154.25,140.79,8,3.92,14.93,4,22.88.12,67.06-33,120.16-80.85,157.37-145.93,5.23-9.14,9.87-18.48,8.65-29.57q-8.24-75-16.38-150c-.61-5.62-3-8.91-8.93-10.41C349.31,38.24,302.23,25.87,255,14.19a45.08,45.08,0,0,0-20.79,0c-47.27,11.65-94.38,24-141.59,35.92-5.7,1.44-8.46,4.36-9.07,10.25-2.91,27.81-6.07,55.59-9.14,83.38C71.86,166.71,69.34,189.71,67,211.4Z"/></g></g></svg>