<svg xmlns="http://www.w3.org/2000/svg" xmlns:xlink="http://www.w3.org/1999/xlink" viewBox="0 0 488.9 402.46"><defs><style>.cls-1,.cls-2{fill:#4182c3;}.cls-1{opacity:0.1;}.cls-3{fill:url(#linear-gradient);}.cls-4{fill:url(#linear-gradient-2);}.cls-5{fill:url(#linear-gradient-3);}.cls-6{fill:url(#linear-gradient-4);}.cls-7{fill:url(#linear-gradient-5);}.cls-8{fill:url(#linear-gradient-6);}</style><linearGradient id="linear-gradient" x1="222.23" y1="95.35" x2="268.51" y2="95.35" gradientUnits="userSpaceOnUse"><stop offset="0.26" stop-color="#6c1a6c"/><stop offset="0.61" stop-color="#6c1a6c"/></linearGradient><linearGradient id="linear-gradient-2" x1="106.26" y1="207.03" x2="382.56" y2="207.03" gradientUnits="userSpaceOnUse"><stop offset="0.07" stop-color="#895ba0"/><stop offset="0.26" stop-color="#6c1a6c"/><stop offset="0.51" stop-color="#7759a0"/><stop offset="0.95" stop-color="#6c1a6c"/></linearGradient><linearGradient id="linear-gradient-3" x1="163.81" y1="247.46" x2="182.89" y2="247.46" gradientTransform="translate(225.75 -50.09) rotate(45)" xlink:href="#linear-gradient"/><linearGradient id="linear-gradient-4" x1="211.69" y1="236.93" x2="230.77" y2="236.93" xlink:href="#linear-gradient"/><linearGradient id="linear-gradient-5" x1="259.97" y1="236.93" x2="279.05" y2="236.93" xlink:href="#linear-gradient"/><linearGradient id="linear-gradient-6" x1="307.07" y1="247.46" x2="326.15" y2="247.46" gradientTransform="translate(65.32 -66.12) rotate(13.28)" xlink:href="#linear-gradient"/></defs><title>karma king</title><g id="Layer_2" data-name="Layer 2"><g id="Layer_1-2" data-name="Layer 1"><polygon class="cls-1" points="78.4 53.79 57.64 234.17 122.06 315.03 207.95 381.6 242.6 397.34 308.15 362.27 381.87 296.42 431.26 214.83 418.38 136.06 406.21 50.92 248.03 5.12 78.4 53.79"/><path class="cls-2" d="M477.46,169.89a94,94,0,0,0,11.44,2.25c-10.44,12.29-19.36,24.18-29.74,34.61-9.83,9.87-13,20-9.91,33.8,3.2,14.2,3.68,29,5.46,44.42-10.36-2.81-19.92-5.45-29.51-8-5.44-1.43-11.68-4.86-16.19-3.34s-7.27,8-10.6,12.5C361.3,336,313.52,372.57,257.82,399.29c-9.12,4.38-18.27,4.14-27.34-.23C171.93,370.87,122.37,331.79,84.9,278.25c-3.26-4.67-6.29-5.49-11.46-4C60.79,278,48,281.24,34.28,284.92c1.41-12.75,2.7-24.86,4.1-37,.7-6,1-12.11,2.53-17.91,1.64-6.28-.38-10.53-4.5-15.07C25.07,202.44,14.16,189.52,3.1,176.74c-.9-1-1.68-2.17-3.1-4,13.57-3.73,26.48-7.3,39.4-10.84,2.91-.8,5.84-1.52,8.78-2.23,11.91-2.88,11.74-2.89,13-14.75q4.66-43.8,9.63-87.58C72,47.11,77.86,40.54,87.89,38c47.92-12.27,95.78-24.8,143.84-36.49a56.11,56.11,0,0,1,25.55,0C305.33,13.2,353.16,25.88,401.13,38c10.51,2.66,15.84,9.63,17,19.46,3.68,30.76,6.85,61.57,10,92.39.51,5,1.78,7.56,7.39,8.8,12.52,2.77,18,4.07,30.36,7.7C467.32,166.75,477.46,169.89,477.46,169.89ZM67,211.4c-.2,11.06,2.16,17.61,11.71,33.73,37.11,62.61,89.1,108.85,154.25,140.79,8,3.92,14.93,4,22.88.12,67.06-33,120.16-80.85,157.37-145.93,5.23-9.14,9.87-18.48,8.65-29.57q-8.24-75-16.38-150c-.61-5.62-3-8.91-8.93-10.41C349.31,38.24,302.23,25.87,255,14.19a45.08,45.08,0,0,0-20.79,0c-47.27,11.65-94.38,24-141.59,35.92-5.7,1.44-8.46,4.36-9.07,10.25-2.91,27.81-6.07,55.59-9.14,83.38C71.86,166.71,69.34,189.71,67,211.4Z"/><path class="cls-3" d="M240,97.8a20,20,0,1,0,10.69,0V78.52h17.8V67.83h-17.8V53.62H240V67.83H222.23V78.52H240Z"/><path class="cls-4" d="M379.59,179.84c-8.17-17.71-29.81-25.33-58.15-20.62-2.5-5.24-6.64-10.55-13-15.83-9.15-7.62-19-10.64-29.25-9-15.51,2.51-27.77,15.29-34,23.2-6.61-7.93-19.61-20.89-35.62-23.26-10.35-1.53-20.17,1.51-29.2,9-6.35,5.29-10.48,10.6-13,15.84-28-4.51-50.15,3.28-58.15,20.61-6.36,13.79-2.23,30.56,10,40.78,20.63,17.19,33.52,57.78,33.65,58.18l.41,1.29,10.31-3.79,0-.08c63.18-15.66,119.58-14.88,167.65,2.3l1.65.59V279l2.54,1,.41-1.31c.13-.41,13-40.81,33.72-58.1C381.83,210.4,386,193.63,379.59,179.84ZM160.07,266.09c-5.24-13.76-16.82-39.77-33.79-53.91-8.45-7.05-11.36-18.45-7.08-27.73,5.58-12.11,22.76-17.44,45.14-14.18-1.2,14.18,7.35,27.29,13.86,37.24A93.38,93.38,0,0,1,185,218.93c5.15,11.45,6.27,29.57,6.49,39.19A251.74,251.74,0,0,0,160.07,266.09ZM195,214.42a101,101,0,0,0-7.61-12.92c-10.81-16.54-21-32.16,0-49.67,6.6-5.5,13.32-7.67,20.55-6.62,15.74,2.31,29,19.44,32.1,23.7l.14,9.63a22.39,22.39,0,0,0,1.87,43.8v30.59a294,294,0,0,0-39.63,3.31C202.1,245.48,200.68,227.06,195,214.42Zm50.71-29.82a15.65,15.65,0,1,1-15.65,15.65A15.67,15.67,0,0,1,245.71,184.6Zm3.12,37.83a22.4,22.4,0,0,0,2.34-43.91L251,168.18c3.51-5.05,15.37-20.57,29.94-22.93,7.09-1.14,13.78,1,20.47,6.58,21,17.51,10.81,33.13,0,49.67a99.89,99.89,0,0,0-7.61,12.92c-5.62,12.5-7.07,30.65-7.41,41.46a267.59,267.59,0,0,0-37.58-3Zm48.53,35.35c.23-9.69,1.38-27.54,6.48-38.85a92.77,92.77,0,0,1,6.78-11.42c6.51-10,15.07-23.07,13.85-37.26,22.39-3.26,39.57,2.09,45.15,14.2,4.28,9.28,1.37,20.68-7.09,27.73-17.06,14.22-28.66,40.28-33.87,53.91A245.85,245.85,0,0,0,297.36,257.78Z"/><circle class="cls-5" cx="173.35" cy="247.46" r="9.54" transform="translate(-124.21 195.05) rotate(-45)"/><circle class="cls-6" cx="221.23" cy="236.93" r="9.54"/><circle class="cls-7" cx="269.51" cy="236.93" r="9.54"/><circle class="cls-8" cx="316.61" cy="247.46" r="9.54" transform="translate(-48.39 79.36) rotate(-13.28)"/></g></g></svg>