<svg xmlns="http://www.w3.org/2000/svg" viewBox="0 0 488.9 402.46"><defs><style>.cls-1,.cls-2{fill:#e7a354;}.cls-1{opacity:0.1;}.cls-3{fill:#0cad4f;}.cls-4{fill:#ca3e27;}.cls-5{fill:#00c2f3;}.cls-6{fill:#f1582b;}.cls-7{fill:#1d95b2;}.cls-8{fill:#0e7c3f;}</style></defs><title>social-bite-star-badge</title><g id="Layer_2" data-name="Layer 2"><g id="Layer_1-2" data-name="Layer 1"><polygon class="cls-1" points="54.57 394.26 441.96 390.06 449.92 215.99 419.04 112.86 379.64 57.83 291.09 8.2 216.42 8.2 150.22 27.53 60.39 118.12 38.98 270.03 54.57 394.26"/><path class="cls-2" d="M39.42,310.65H0c4.38-12,8.36-22.95,12.33-33.87,4.35-12,8.92-23.85,12.87-35.95,1-3.15,1,21.43-.06,18.31-7.27-20.81-15-41.45-22.53-62.16-.73-2-1.4-4-2.43-7H40.11c6.79-62.78,35.09-112.68,84-149.89C160.45,12.46,202-.46,247.15,0,342.78,1,436.77,74.46,449,189.46H488.9c-5.25,14.43-10.13,27.9-15,41.36-3.28,9-7.1,17.78-9.7,26.94-1.23,4.32-1.35-19,.09-14.8,7.3,21.28,15.28,42.32,23,63.45.39,1.07.66,2.18,1.2,4H449.3c0,11,.15,43.81,0,71.33-.07,15.18-5.78,20.75-20.79,20.69-44.55-.16-89.1-.58-133.65-.55q-117,.09-234,.6c-15.78,0-21.43-5.48-21.45-21.59-.06-34.89,0,2.05,0-32.84Zm394.42,75.48v-8.4c0-79.11,0-86.39,0-165.5a188.53,188.53,0,0,0-1.16-22c-8.58-72.51-45.23-125-109.58-156.57-34-16.71-70.28-21.13-107.79-15.37C124.86,32.12,55.38,113.49,55.13,206.59c-.22,81.08-.06,90.33-.07,171.41v8.13Z"/><polygon class="cls-3" points="244.77 203.99 100.81 152.09 157.47 221.09 244.77 203.99"/><polygon class="cls-4" points="275.41 355.56 244.77 203.99 303.96 271.81 275.41 355.56"/><polygon class="cls-5" points="129.14 304.84 216.44 290.68 244.77 203.99 129.14 304.84"/><polygon class="cls-6" points="275.41 355.56 216.44 290.68 244.77 203.99 275.41 355.56"/><polygon class="cls-7" points="129.14 304.84 244.77 203.99 156.98 220.5 129.14 304.84"/><polygon class="cls-8" points="100.81 152.09 244.77 203.99 186.38 135.48 100.81 152.09"/><polygon class="cls-3" points="244.76 204.03 388.09 257.72 332.26 188.02 244.76 204.03"/><polygon class="cls-4" points="215.93 52.1 244.76 204.03 186.38 135.48 215.93 52.1"/><polygon class="cls-5" points="361.58 104.63 274.12 117.7 244.76 204.03 361.58 104.63"/><polygon class="cls-6" points="215.93 52.1 274.12 117.7 244.76 204.03 215.93 52.1"/><polygon class="cls-7" points="361.58 104.63 244.76 204.03 332.74 188.62 361.58 104.63"/><polygon class="cls-8" points="388.09 257.72 244.76 204.03 303.17 274.11 388.09 257.72"/></g></g></svg>