<svg xmlns="http://www.w3.org/2000/svg" xmlns:xlink="http://www.w3.org/1999/xlink" viewBox="0 0 488.9 402.46"><defs><style>.cls-1,.cls-2{fill:#e7a354;}.cls-1{opacity:0.1;}.cls-3{fill:url(#linear-gradient);}.cls-4{fill:#8e9192;}.cls-5{fill:#c4c4c3;}</style><linearGradient id="linear-gradient" x1="123.39" y1="244.68" x2="359.98" y2="244.68" gradientUnits="userSpaceOnUse"><stop offset="0" stop-color="#828484"/><stop offset="0.25" stop-color="#c4c4c3"/><stop offset="0.73" stop-color="#828484"/></linearGradient></defs><title>social-bite-ambassador-badge</title><g id="Layer_2" data-name="Layer 2"><g id="Layer_1-2" data-name="Layer 1"><polygon class="cls-1" points="54.57 394.26 441.96 390.06 449.92 215.99 419.04 112.86 379.64 57.83 291.09 8.2 216.42 8.2 150.22 27.53 60.39 118.12 38.98 270.03 54.57 394.26"/><path class="cls-2" d="M39.42,310.65H0c4.38-12,8.36-22.95,12.33-33.87,4.35-12,8.92-23.85,12.87-35.95,1-3.15,1,21.43-.06,18.31-7.27-20.81-15-41.45-22.53-62.16-.73-2-1.4-4-2.43-7H40.11c6.79-62.78,35.09-112.68,84-149.89C160.45,12.46,202-.46,247.15,0,342.78,1,436.77,74.46,449,189.46H488.9c-5.25,14.43-10.13,27.9-15,41.36-3.28,9-7.1,17.78-9.7,26.94-1.23,4.32-1.35-19,.09-14.8,7.3,21.28,15.28,42.32,23,63.45.39,1.07.66,2.18,1.2,4H449.3c0,11,.15,43.81,0,71.33-.07,15.18-5.78,20.75-20.79,20.69-44.55-.16-89.1-.58-133.65-.55q-117,.09-234,.6c-15.78,0-21.43-5.48-21.45-21.59-.06-34.89,0,2.05,0-32.84Zm394.42,75.48v-8.4c0-79.11,0-86.39,0-165.5a188.53,188.53,0,0,0-1.16-22c-8.58-72.51-45.23-125-109.58-156.57-34-16.71-70.28-21.13-107.79-15.37C124.86,32.12,55.38,113.49,55.13,206.59c-.22,81.08-.06,90.33-.07,171.41v8.13Z"/><path class="cls-3" d="M347.9,146.79c-8.44-7.63-18.68-8.84-25-8.7-.31-7.85-.83-12.69-.83-12.69H161.79s-.52,4.85-.82,12.7c-6.33-.2-16.86.89-25.5,8.69-9,8.14-13,20.69-11.89,37.28,1.28,18.82,7.64,31.88,18.89,38.84a34.79,34.79,0,0,0,18.48,5,47.63,47.63,0,0,0,14-2.2c9.34,19.53,24.6,34.81,49.36,37.32v56.35H191.17L175.35,364H310.61l-15.82-44.56H259.55V263.06c24.87-2.26,40.17-17.54,49.5-37.14a47.52,47.52,0,0,0,13.37,2,34.79,34.79,0,0,0,18.48-5c11.25-7,17.61-20,18.89-38.84C360.92,167.48,356.92,154.93,347.9,146.79ZM155,201.64c-4-2.49-6.49-9.34-7.17-19.29-.56-8.19.75-14.2,3.67-16.91s7.71-2.63,9.62-2.47a209.22,209.22,0,0,0,5.54,39.35C163.42,203.16,158.41,203.78,155,201.64Zm180.5-19.28c-.68,9.94-3.22,16.79-7.17,19.28-3.22,2-7.9,1.58-11.12.81a210.53,210.53,0,0,0,5.48-39.51c2.15-.12,6.45,0,9.14,2.5C334.77,168.15,336.08,174.16,335.52,182.36Z"/><path class="cls-4" d="M171.15,134.92s-10.38,99.7,51.94,121.14c0,0-59.79-25.13-41.57-121.14Z"/><polygon class="cls-4" points="333.81 133.69 327.48 119.88 313.94 113.42 327.48 106.97 333.81 93.16 340.14 106.97 353.68 113.42 340.14 119.88 333.81 133.69"/><polygon class="cls-5" points="293.37 105.3 289.58 97.02 281.47 93.16 289.58 89.29 293.37 81.02 297.15 89.29 305.26 93.16 297.15 97.02 293.37 105.3"/><polygon class="cls-4" points="182.4 294.99 178.61 286.71 170.5 282.85 178.61 278.98 182.4 270.71 186.19 278.98 194.29 282.85 186.19 286.71 182.4 294.99"/></g></g></svg>