<svg xmlns="http://www.w3.org/2000/svg" viewBox="0 0 469.04 378.51"><defs><style>.cls-1,.cls-2{fill:#e7a354;}.cls-1{opacity:0.1;}.cls-3{fill:#0cad4f;}.cls-4{fill:#ca3e27;}.cls-5{fill:#00c2f3;}.cls-6{fill:#f1582b;}.cls-7{fill:#1d95b2;}.cls-8{fill:#0e7c3f;}</style></defs><title>social bite star</title><g id="Layer_2" data-name="Layer 2"><g id="Layer_1-2" data-name="Layer 1"><polygon class="cls-1" points="52.35 370.8 424.01 366.85 431.65 203.14 402.02 106.15 364.22 54.39 279.27 7.71 207.63 7.71 144.12 25.89 57.94 111.1 37.4 253.96 52.35 370.8"/><path class="cls-2" d="M37.82,292.17H0l11.83-31.86c4.17-11.25,8.55-22.43,12.34-33.81,1-3,1,20.16-.05,17.22-7-19.57-14.37-39-21.61-58.46-.71-1.89-1.35-3.81-2.34-6.61H38.48c6.52-59,33.67-106,80.62-141,34.83-26,74.68-38.11,118-37.67C328.86,1,419,70,430.8,178.18H469c-5,13.58-9.71,26.25-14.43,38.91-3.14,8.44-6.81,16.72-9.3,25.34-1.18,4.06-1.3-17.86.08-13.93,7,20,14.67,39.81,22.09,59.68.37,1,.63,2.05,1.15,3.74H431.05c0,10.32.14,41.21,0,67.09-.07,14.28-5.54,19.51-19.94,19.46-42.74-.15-85.48-.55-128.22-.52q-112.28.07-224.55.56c-15.14,0-20.56-5.15-20.58-20.3-.06-32.81,0,1.92,0-30.89Zm378.4,71v-7.9c0-74.4,0-81.25,0-155.65a175,175,0,0,0-1.12-20.73c-8.23-68.19-43.4-117.53-105.13-147.25C277.28,15.9,242.51,11.74,206.52,17.16,119.79,30.21,53.13,106.73,52.89,194.3c-.21,76.25-.06,85-.07,161.21v7.64Z"/><polygon class="cls-3" points="234.83 191.85 96.72 143.04 151.07 207.94 234.83 191.85"/><polygon class="cls-4" points="264.22 334.4 234.83 191.85 291.61 255.64 264.22 334.4"/><polygon class="cls-5" points="123.89 286.7 207.65 273.39 234.83 191.85 123.89 286.7"/><polygon class="cls-6" points="264.22 334.4 207.65 273.39 234.83 191.85 264.22 334.4"/><polygon class="cls-7" points="123.89 286.7 234.83 191.85 150.61 207.38 123.89 286.7"/><polygon class="cls-8" points="96.72 143.04 234.83 191.85 178.81 127.42 96.72 143.04"/><polygon class="cls-3" points="234.82 191.9 372.33 242.38 318.76 176.83 234.82 191.9"/><polygon class="cls-4" points="207.16 49 234.82 191.9 178.81 127.42 207.16 49"/><polygon class="cls-5" points="346.9 98.41 262.99 110.7 234.82 191.9 346.9 98.41"/><polygon class="cls-6" points="207.16 49 262.99 110.7 234.82 191.9 207.16 49"/><polygon class="cls-7" points="346.9 98.41 234.82 191.9 319.22 177.39 346.9 98.41"/><polygon class="cls-8" points="372.33 242.38 234.82 191.9 290.86 257.8 372.33 242.38"/></g></g></svg>