<svg xmlns="http://www.w3.org/2000/svg" viewBox="0 0 469.04 378.51"><defs><style>.cls-1,.cls-2{fill:#e7a354;}.cls-1{opacity:0.1;}.cls-3{fill:#c4c4c3;}.cls-4{fill:#8e9192;}</style></defs><title>social bite ambassador</title><g id="Layer_2" data-name="Layer 2"><g id="Layer_1-2" data-name="Layer 1"><polygon class="cls-1" points="52.35 370.8 424.01 366.85 431.65 203.14 402.02 106.15 364.22 54.39 279.27 7.71 207.63 7.71 144.12 25.89 57.94 111.1 37.4 253.96 52.35 370.8"/><path class="cls-2" d="M37.82,292.17H0l11.83-31.86c4.17-11.25,8.55-22.43,12.34-33.81,1-3,1,20.16-.05,17.22-7-19.57-14.37-39-21.61-58.46-.71-1.89-1.35-3.81-2.34-6.61H38.48c6.52-59,33.67-106,80.62-141,34.83-26,74.68-38.11,118-37.67C328.86,1,419,70,430.8,178.18H469c-5,13.58-9.71,26.25-14.43,38.91-3.14,8.44-6.81,16.72-9.3,25.34-1.18,4.06-1.3-17.86.08-13.93,7,20,14.67,39.81,22.09,59.68.37,1,.63,2.05,1.15,3.74H431.05c0,10.32.14,41.21,0,67.09-.07,14.28-5.54,19.51-19.94,19.46-42.74-.15-85.48-.55-128.22-.52q-112.28.07-224.55.56c-15.14,0-20.56-5.15-20.58-20.3-.06-32.81,0,1.92,0-30.89Zm378.4,71v-7.9c0-74.4,0-81.25,0-155.65a175,175,0,0,0-1.12-20.73c-8.23-68.19-43.4-117.53-105.13-147.25C277.28,15.9,242.51,11.74,206.52,17.16,119.79,30.21,53.13,106.73,52.89,194.3c-.21,76.25-.06,85-.07,161.21v7.64Z"/><path class="cls-3" d="M333.78,138.06c-8.11-7.18-17.93-8.31-24-8.19-.29-7.38-.8-11.93-.8-11.93H155.22s-.5,4.56-.79,11.94c-6.07-.19-16.17.84-24.47,8.18-8.65,7.65-12.48,19.45-11.4,35.06,1.23,17.69,7.33,30,18.13,36.52a33.82,33.82,0,0,0,17.72,4.74,46.42,46.42,0,0,0,13.38-2.07c9,18.37,23.61,32.74,47.36,35.1v53H183.4l-15.17,41.91H298L282.82,300.4H249v-53c23.86-2.13,38.54-16.5,47.49-34.94a46,46,0,0,0,12.83,1.91,33.8,33.8,0,0,0,17.72-4.74c10.8-6.54,16.9-18.83,18.13-36.52C346.26,157.51,342.43,145.71,333.78,138.06ZM148.72,189.64c-3.78-2.34-6.22-8.78-6.87-18.14-.54-7.7.71-13.35,3.52-15.9s7.39-2.47,9.23-2.33a193,193,0,0,0,5.31,37C156.78,191.08,152,191.65,148.72,189.64Zm173.17-18.13c-.65,9.35-3.09,15.79-6.87,18.13-3.09,1.91-7.58,1.49-10.67.77a195.27,195.27,0,0,0,5.26-37.17c2.06-.11,6.18,0,8.76,2.36C321.18,158.15,322.43,163.8,321.89,171.51Z"/><path class="cls-4" d="M164.2,126.89s-10,93.77,49.83,113.94c0,0-57.36-23.64-39.88-113.94Z"/><polygon class="cls-4" points="320.25 125.73 314.19 112.74 301.19 106.67 314.19 100.61 320.25 87.62 326.32 100.61 339.31 106.67 326.32 112.74 320.25 125.73"/><polygon class="cls-3" points="281.45 99.03 277.82 91.25 270.04 87.62 277.82 83.98 281.45 76.2 285.09 83.98 292.87 87.62 285.09 91.25 281.45 99.03"/><polygon class="cls-4" points="174.99 277.44 171.35 269.65 163.57 266.02 171.35 262.38 174.99 254.6 178.62 262.38 186.4 266.02 178.62 269.65 174.99 277.44"/></g></g></svg>