<svg xmlns="http://www.w3.org/2000/svg" xmlns:xlink="http://www.w3.org/1999/xlink" viewBox="0 0 433.49 405.67"><defs><style>.cls-1,.cls-11,.cls-19{fill:none;}.cls-2,.cls-3{fill:#57c1ab;}.cls-2{opacity:0.1;}.cls-4{clip-path:url(#clip-path);}.cls-5{fill:#157646;}.cls-6{fill:#003b31;}.cls-7{fill:#0e5c3b;}.cls-8{fill:#4ab972;}.cls-9{fill:#128773;}.cls-10{fill:#73cac4;}.cls-11{stroke:#555859;stroke-width:0.72px;}.cls-11,.cls-13,.cls-14,.cls-19{stroke-miterlimit:10;}.cls-12{fill:#dc3245;}.cls-13{fill:#105e92;stroke:#105e92;stroke-width:0.24px;}.cls-14{fill:#99c665;stroke:#99c665;stroke-width:0.2px;}.cls-15{fill:#90682b;}.cls-16{fill:#ae8747;}.cls-17{fill:#eee048;}.cls-18{fill:#152941;}.cls-19{stroke:#152941;stroke-width:2px;}.cls-20{fill:#b1c9e8;}.cls-21{fill:#c7402a;}.cls-22{fill:#de4226;}.cls-23{fill:#f16073;}.cls-24{fill:#f592a4;}</style><clipPath id="clip-path"><circle class="cls-1" cx="216.1" cy="191.11" r="174.2"/></clipPath></defs><title>zero waster champion</title><g id="Layer_2" data-name="Layer 2"><g id="Layer_1-2" data-name="Layer 1"><path class="cls-2" d="M216.57,367.5v.28q64.6,0,129.21,0c16.28,0,28.55-9.56,30.85-23.94.72-4.48,1.26-9,2-13.46q20-128.86,40.09-257.74c2.91-18.67-3.89-29.43-22-34.31a685.4,685.4,0,0,0-189.95-23.8A670.88,670.88,0,0,0,34.46,39.2C19.12,43.51,12.17,54.91,14.65,70.81q21,135,42.08,269.9c2.84,18.2,12.86,26.77,31.31,26.78Q152.3,367.52,216.57,367.5Z"/><path class="cls-3" d="M.45,70C-2.5,50.13,9.3,31,29.49,26c27-6.79,54.25-13,81.7-17.59C162.8-.25,214.88-1.84,267.06,1.9A695.21,695.21,0,0,1,403.64,25.44c20.84,5.8,32.67,24.87,29.27,46.31q-5.36,33.93-10.55,67.87c-.26,1.66-22.29,141.92-24.9,159.18-2.37,15.6-4.46,31.25-7,46.82a41.73,41.73,0,0,1-41.66,35.46q-132.41.07-264.83,0c-20.33,0-37.49-15.26-40.63-35.81Q36,297.52,28.68,249.79c-.13-.84-.36-1.65-.75-3.41M216.59,367.19v.29q64.62,0,129.22,0c16.28,0,28.55-9.56,30.85-24,.72-4.47,1.26-9,2-13.45q20-128.88,40.1-257.75c2.91-18.67-3.89-29.43-22-34.32a686.15,686.15,0,0,0-190-23.8A671,671,0,0,0,34.48,38.89C19.14,43.19,12.19,54.6,14.67,70.5q21,135,42.08,269.9c2.84,18.21,12.87,26.78,31.32,26.79Q152.33,367.22,216.59,367.19Z"/><g class="cls-4"><path class="cls-5" d="M146.41,121.39s48.7-18.82,93.61-3.7,83.85-12,83.85-12L286.41,211,169.75,192.1Z"/><path class="cls-6" d="M318.83,198.33s-58.75-50.69-121.93-39.78-82.28-15.67-82.28-15.67l-6.1,102L219.93,322l51.69-28Z"/><path class="cls-7" d="M306.46,198.33s-24.4-23.06-61.23,18.82S41.9,233.76,41.9,233.76l-26,69L186,405.67,314.25,361.9l76.42-26,8.63-89.58L358.63,208Z"/><polygon class="cls-8" points="207.92 162.22 251.08 92.93 251.08 165.08 207.92 162.22"/><polygon class="cls-9" points="292.25 163.93 251.08 92.93 250.98 167.25 292.25 163.93"/><path class="cls-10" d="M155.61,105.86H121.09s-6.72.29-6.72-8.43,8.79-7.57,8.79-7.57a8.13,8.13,0,0,1,2.15-6.06c2.58-2.63,8.24-2.66,11,.62,0,0,.11-8.09,10.42-7.87,12.12.26,9.53,13.6,9.53,13.6s7.17.67,7.17,7.84S155.61,105.86,155.61,105.86Z"/><path class="cls-10" d="M248.33,72.89H213.82s-6.73.3-6.73-8.43,8.8-7.57,8.8-7.57A8.11,8.11,0,0,1,218,50.83c2.59-2.62,8.24-2.66,11,.63,0,0,.11-8.1,10.42-7.87,12.12.26,9.54,13.6,9.54,13.6s7.17.66,7.17,7.83S248.33,72.89,248.33,72.89Z"/><polyline class="cls-11" points="188.29 93.95 189.78 98.42 198.62 98.42 200.24 93.95"/><path class="cls-12" d="M192.48,35.24s-19.68,9.42-18,24.72,14.59,33.18,14.59,33.18h10.56S214,77.29,213.8,64s-5.35-23.72-10.73-25.57S195.5,34.06,192.48,35.24Z"/><path class="cls-13" d="M193.69,35.08s-24.15,2-22.37,27.34c0,0,0,10.65,17.75,30.72h2.13S159.78,52.83,193.69,35.08Z"/><path class="cls-13" d="M195,35.08s24.14,2,22.37,27.34c0,0,0,10.65-17.76,30.72H197.5S228.93,52.83,195,35.08Z"/><path class="cls-14" d="M192.45,93.41h1.77l.09-58.33S177.18,52.57,192.45,93.41Z"/><path class="cls-14" d="M194.45,35.19l-.1,58.09h2C211.64,52.44,194.45,35.19,194.45,35.19Z"/><rect class="cls-12" x="187.45" y="93.08" width="13.64" height="1.46" rx="0.72" ry="0.72"/><rect class="cls-15" x="188.91" y="98.01" width="10.87" height="1.18"/><rect class="cls-15" x="189.66" y="98.96" width="9.48" height="5.06"/><rect class="cls-16" x="190.81" y="99.66" width="0.59" height="3.8"/><rect class="cls-16" x="192.47" y="99.66" width="0.59" height="3.8"/><rect class="cls-16" x="194.12" y="99.66" width="0.59" height="3.8"/><rect class="cls-16" x="195.78" y="99.66" width="0.59" height="3.8"/><rect class="cls-16" x="197.44" y="99.66" width="0.59" height="3.8"/><path class="cls-17" d="M277.71,29.57a12.68,12.68,0,0,0-4.37,9.29c0,5.82,4.3,5.51,4.3,5.51s4.5.31,4.5-5.51A12.63,12.63,0,0,0,277.71,29.57Z"/><path class="cls-17" d="M251.66,40.85a12.64,12.64,0,0,0,3.47,9.65c4.12,4.12,6.95.86,6.95.86s3.4-3-.72-7.08A12.61,12.61,0,0,0,251.66,40.85Z"/><path class="cls-17" d="M241.21,67.24a12.68,12.68,0,0,0,9.29,4.37c5.82,0,5.51-4.31,5.51-4.31s.31-4.5-5.51-4.5A12.62,12.62,0,0,0,241.21,67.24Z"/><path class="cls-17" d="M252.49,93.29a12.67,12.67,0,0,0,9.65-3.48c4.12-4.12.86-6.94.86-6.94s-3-3.41-7.08.71A12.64,12.64,0,0,0,252.49,93.29Z"/><path class="cls-17" d="M278.88,103.73a12.67,12.67,0,0,0,4.37-9.28c0-5.83-4.31-5.52-4.31-5.52s-4.5-.31-4.5,5.52A12.61,12.61,0,0,0,278.88,103.73Z"/><path class="cls-17" d="M304.93,92.46a12.69,12.69,0,0,0-3.48-9.66c-4.12-4.12-6.94-.86-6.94-.86s-3.4,3,.72,7.09A12.61,12.61,0,0,0,304.93,92.46Z"/><path class="cls-17" d="M315.37,66.07a12.67,12.67,0,0,0-9.28-4.37c-5.83,0-5.52,4.3-5.52,4.3s-.31,4.5,5.52,4.5A12.62,12.62,0,0,0,315.37,66.07Z"/><path class="cls-17" d="M304.1,40a12.66,12.66,0,0,0-9.66,3.47c-4.12,4.12-.85,6.95-.85,6.95s3,3.4,7.08-.72A12.61,12.61,0,0,0,304.1,40Z"/><circle class="cls-17" cx="278.29" cy="66.65" r="17.74"/><text></text><polygon class="cls-8" points="187.83 175 226.03 105.72 226.03 177.86 187.83 175"/><polygon class="cls-9" points="262.47 176.72 226.03 105.72 225.94 180.04 262.47 176.72"/><polygon class="cls-8" points="202.07 190.67 245.23 121.39 245.13 195.71 202.07 190.67"/><polygon class="cls-9" points="286.41 192.39 245.23 121.39 245.13 195.71 286.41 192.39"/><polygon class="cls-9" points="155.59 172.38 141.9 192.1 169.75 192.1 155.59 172.38"/><polygon class="cls-9" points="155.53 182.24 138.15 207.29 173.51 207.29 155.53 182.24"/><polygon class="cls-9" points="155.49 195.71 135.77 224.13 175.88 224.13 155.49 195.71"/><polygon class="cls-9" points="155.49 211.03 135.77 239.44 175.88 239.44 155.49 211.03"/><polygon class="cls-9" points="155.43 222.56 132 256.31 179.65 256.31 155.43 222.56"/><polygon class="cls-9" points="205.45 207.29 191.76 227.01 219.6 227.01 205.45 207.29"/><polygon class="cls-9" points="205.38 217.15 188 242.2 223.36 242.2 205.38 217.15"/><polygon class="cls-9" points="205.34 230.62 185.62 259.04 225.73 259.04 205.34 230.62"/><polygon class="cls-9" points="178.13 194.77 164.44 214.49 192.28 214.49 178.13 194.77"/><polygon class="cls-9" points="178.06 204.63 160.68 229.68 196.04 229.68 178.06 204.63"/><polygon class="cls-9" points="178.03 218.1 158.3 246.51 198.42 246.51 178.03 218.1"/><polygon class="cls-18" points="135.77 274.94 136.89 271.23 123.9 244.83 135.77 274.94"/><polygon class="cls-18" points="140.14 290.02 140.14 284.92 120.65 257.77 140.14 290.02"/><polygon class="cls-18" points="144.32 306.96 144.32 303.25 114.62 264.5 144.32 306.96"/><polygon class="cls-18" points="146.41 312.07 124.83 297.91 146.41 314.85 146.41 312.07"/><path class="cls-18" d="M145.25,294.43l1.16,3.48s11.42-37.54,14.27-45.24Z"/><polygon class="cls-18" points="141.47 274.94 141.47 279.01 149 262.07 141.47 274.94"/><path class="cls-19" d="M157.28,303.48s3.39-16.29,8.79-28.54"/><rect class="cls-18" x="165.64" y="257.22" width="5.65" height="21.34" rx="2.82" ry="2.82" transform="translate(110.38 -43.19) rotate(21.59)"/><rect class="cls-18" x="171.93" y="256.08" width="1.95" height="2.97" rx="0.98" ry="0.98" transform="translate(123.63 -48.71) rotate(24.73)"/><path class="cls-19" d="M148.11,306.38s-10.36-29.77-11.87-43.06"/><rect class="cls-18" x="131.94" y="245.35" width="5.65" height="21.34" rx="2.82" ry="2.82" transform="translate(-36.96 23.17) rotate(-8.65)"/><rect class="cls-18" x="132.42" y="243.37" width="1.95" height="2.97" rx="0.98" ry="0.98" transform="translate(-22.85 13.91) rotate(-5.5)"/><path class="cls-20" d="M93,326c-1.76-17.71,47-28.53,79.87-25.94s17.84,13.46,52.83,6.89,44.38-13.79,64.75-9,82.49,14.31,70.85,29.51-72.54,41.13-97.44,37.9-55.59,14-79,11.73S94.79,343.71,93,326Z"/><path class="cls-9" d="M190.61,336.42s1.37-11.35-16.49-6.62-8.63,30.22,6.14,37.25l7-3.36,1.37,4.73s20,3.51,28.24-4.73S216.86,329.08,190.61,336.42Z"/><path class="cls-21" d="M201.52,342a17.8,17.8,0,0,0,2.07-7.71s-5.11.1-6.26,3.86S201.52,342,201.52,342Z"/><path class="cls-22" d="M206.53,343.73s3-3.27,6.12-2.93c0,0,.86,6.31-1.06,7.46S206.53,343.73,206.53,343.73Z"/><path class="cls-23" d="M199.54,344.79s3-4.91-3.27-12.71c0,0-9.93,11.27-.77,17.44Z"/><path class="cls-23" d="M202,346.82s6.07-4.43,12.72,1.92c0,0-9.64,10.69-16.28,1.55Z"/><path class="cls-24" d="M195,351.83s-2.79-14.65,13-14.07C208,337.76,210.91,351.83,195,351.83Z"/><path class="cls-21" d="M177.58,342.69a11.56,11.56,0,0,0-3.25-4s-1.88,2.7-.35,4.73S177.58,342.69,177.58,342.69Z"/><path class="cls-22" d="M180.38,340.73s-.56-2.82.78-4.31c0,0,3.63,1.94,3.5,3.38S180.38,340.73,180.38,340.73Z"/><path class="cls-23" d="M178.29,344.78s-1.44-3.41-7.89-3.09c0,0,2.14,9.45,8.83,7Z"/><path class="cls-23" d="M180.26,344.29s0-4.85,5.82-5.92c0,0,1.94,9.08-5.35,9.1Z"/><path class="cls-24" d="M180.26,349.82s-8.72-4.09-2.44-12.13C177.82,337.69,186.27,341.5,180.26,349.82Z"/></g></g></g></svg>