<svg xmlns="http://www.w3.org/2000/svg" xmlns:xlink="http://www.w3.org/1999/xlink" viewBox="0 0 511.36 402.46"><defs><style>.cls-1,.cls-17,.cls-19,.cls-20,.cls-29{fill:none;}.cls-2{fill:#d4e3f5;}.cls-3,.cls-4{fill:#57c1ab;}.cls-3{opacity:0.1;}.cls-5{clip-path:url(#clip-path);}.cls-6{fill:#e5a86d;}.cls-7{clip-path:url(#clip-path-2);}.cls-8{fill:#157646;}.cls-9{fill:#003b31;}.cls-10{fill:#001815;}.cls-11{fill:#128773;}.cls-12{fill:#4ab972;}.cls-13{fill:#0e5c3b;}.cls-14{fill:#73cac4;}.cls-15{fill:#eee048;}.cls-16{fill:#6ec064;}.cls-17,.cls-19,.cls-20{stroke:#407f3c;}.cls-17,.cls-19,.cls-20,.cls-29,.cls-31,.cls-32{stroke-miterlimit:10;}.cls-17{stroke-width:2px;}.cls-18{fill:#6c472d;}.cls-19{stroke-width:1.5px;}.cls-21{fill:#b1c9e8;}.cls-22{fill:#c7402a;}.cls-23{fill:#de4226;}.cls-24{fill:#f16073;}.cls-25{fill:#f592a4;}.cls-26{fill:#006554;}.cls-27{fill:#cab830;}.cls-28{fill:#e5eb98;}.cls-29{stroke:#555859;stroke-width:0.72px;}.cls-30{fill:#dc3245;}.cls-31{fill:#105e92;stroke:#105e92;stroke-width:0.24px;}.cls-32{fill:#99c665;stroke:#99c665;stroke-width:0.2px;}.cls-33{fill:#90682b;}.cls-34{fill:#ae8747;}.cls-35{fill:#dae5f5;}.cls-36{fill:#57442f;}.cls-37{fill:#58362c;}.cls-38{fill:#311f0f;}.cls-39{fill:#7f6656;}.cls-40{fill:#fcb45c;}.cls-41{fill:#ef9625;}.cls-42{fill:#8e8e8c;}.cls-43{fill:#fff;}.cls-44{fill:#fdc080;}.cls-45{clip-path:url(#clip-path-3);}.cls-46{clip-path:url(#clip-path-4);}.cls-47{clip-path:url(#clip-path-5);}.cls-48{fill:#fdd8a6;}.cls-49{clip-path:url(#clip-path-6);}</style><clipPath id="clip-path"><polygon class="cls-1" points="123.78 37.59 438.03 52.9 465.32 117.17 424.81 362.07 88.73 371.21 29.15 164.47 123.78 37.59"/></clipPath><clipPath id="clip-path-2"><ellipse class="cls-2" cx="244.16" cy="190.1" rx="151.13" ry="141.5"/></clipPath><clipPath id="clip-path-3"><path class="cls-1" d="M117.84,345.33s-12.75-15.1,17.18-13.2,110.07,22.76,143.86,17.75,94.64-21.39,120.65-21.39,138.88,25.95,138.88,25.95l-27,18.21-230.1,4.55Z"/></clipPath><clipPath id="clip-path-4"><path class="cls-1" d="M218.93,296.61s53,12.3,76.56,10,91.77-16.39,91.77-16.39l-55.95,29.55H203.65Z"/></clipPath><clipPath id="clip-path-5"><path class="cls-1" d="M498.94,283.12l-62.12-17.87s-18-16.72-53.42-14.41-43.48,11-52.17,12.68S267.87,275.63,248,276.78s-24.22,25.36-21.74,29.39c1.47,2.38,20.45,5,38.45,6.26,12.5.88,24.53,1.1,29.88.14,13-2.37,54.65-16.77,67.7-17.93"/></clipPath><clipPath id="clip-path-6"><path class="cls-1" d="M139.29,313.92c-13.56,2.95-20.5,24.67-12.42,27.55s128.85,21.54,152,19.12,98.31-22.72,123.78-23.23,108.7,23.23,108.7,23.23l-3.87-78L302,294.21,210.1,318.42S167.86,307.69,139.29,313.92Z"/></clipPath></defs><title>zero-waste-champion-bagde</title><g id="Layer_2" data-name="Layer 2"><g id="Layer_1-2" data-name="Layer 1"><path class="cls-3" d="M244.25,388.08v.3q72.86,0,145.73,0c18.36,0,32.19-10.1,34.79-25.29.81-4.72,1.42-9.48,2.21-14.2Q449.57,212.78,472.2,76.7c3.28-19.71-4.39-31.08-24.79-36.24A823.47,823.47,0,0,0,233.18,15.33,804.62,804.62,0,0,0,38.86,41.4C21.56,46,13.73,58,16.52,74.78q23.72,142.5,47.46,285c3.2,19.22,14.51,28.27,35.32,28.28Q171.77,388.1,244.25,388.08Z"/><path class="cls-4" d="M.51,73.88c-3.33-20.94,10-41.1,32.75-46.46,30.46-7.17,61.18-13.71,92.15-18.57C183.61-.27,242.35-1.94,301.2,2a831.87,831.87,0,0,1,154,24.86c23.5,6.12,36.84,26.26,33,48.9q-6.06,35.82-11.91,71.67c-.29,1.75-25.13,149.86-28.08,168.09-2.67,16.48-5,33-7.9,49.45-3.83,22-23.28,37.42-47,37.44q-149.34.07-298.67,0c-22.94,0-42.29-16.11-45.83-37.81q-8.25-50.43-16.53-100.83c-.14-.88-.4-1.75-.84-3.6M244.28,387.76v.29q72.87,0,145.73,0c18.36,0,32.2-10.1,34.79-25.29.81-4.72,1.43-9.48,2.21-14.21q22.59-136.1,45.22-272.18c3.29-19.72-4.38-31.08-24.79-36.24A823,823,0,0,0,233.21,15,805.11,805.11,0,0,0,38.89,41.06C21.58,45.61,13.75,57.65,16.55,74.45Q40.25,217,64,359.47c3.2,19.22,14.51,28.27,35.32,28.28Q171.8,387.78,244.28,387.76Z"/><g class="cls-5"><path class="cls-6" d="M176.56,303.77S122.52,291.42,129,323s42.55,7.33,42.55,7.33Z"/><ellipse class="cls-2" cx="244.16" cy="190.1" rx="151.13" ry="141.5"/><g class="cls-7"><path class="cls-8" d="M96.32,155.73s128.46-38.84,167.31-26.59,183.57-5.56,183.57-5.56L428.91,223.77,69.49,239.92Z"/><path class="cls-9" d="M424.81,180.53s-143-63.64-204-21.41c-44.59,30.9-152-13-152-13L81.6,239.67l164.65,55L291,272.06Z"/><polygon class="cls-10" points="241.93 149.89 230.09 165.87 254.18 165.87 241.93 149.89"/><polygon class="cls-10" points="241.88 157.88 226.83 178.18 257.43 178.18 241.88 157.88"/><polygon class="cls-10" points="241.84 168.8 224.78 191.81 259.49 191.81 241.84 168.8"/><polygon class="cls-10" points="202.04 161.52 190.2 177.5 214.29 177.5 202.04 161.52"/><polygon class="cls-10" points="201.99 169.51 186.94 189.81 217.54 189.81 201.99 169.51"/><polygon class="cls-10" points="201.95 180.43 184.89 203.44 219.6 203.44 201.95 180.43"/><polygon class="cls-10" points="261.22 131.87 249.38 147.84 273.47 147.84 261.22 131.87"/><polygon class="cls-10" points="261.17 139.85 246.12 160.15 276.72 160.15 261.17 139.85"/><polygon class="cls-10" points="261.13 150.77 244.07 173.79 278.78 173.79 261.13 150.77"/><polygon class="cls-10" points="261.13 165 244.07 188.02 278.78 188.02 261.13 165"/><polygon class="cls-10" points="261.13 177.18 244.07 200.2 278.78 200.2 261.13 177.18"/><polygon class="cls-10" points="280.63 118.23 268.79 134.21 292.88 134.21 280.63 118.23"/><polygon class="cls-10" points="280.58 126.22 265.53 146.51 296.13 146.51 280.58 126.22"/><polygon class="cls-10" points="280.54 137.13 263.48 160.15 298.19 160.15 280.54 137.13"/><polygon class="cls-10" points="280.54 151.37 263.48 174.38 298.19 174.38 280.54 151.37"/><polygon class="cls-10" points="280.54 163.54 263.48 186.56 298.19 186.56 280.54 163.54"/><polygon class="cls-10" points="178.41 151.38 166.56 167.35 190.65 167.35 178.41 151.38"/><polygon class="cls-10" points="178.35 159.37 163.31 179.66 193.91 179.66 178.35 159.37"/><polygon class="cls-10" points="178.32 170.28 161.25 193.3 195.96 193.3 178.32 170.28"/><polygon class="cls-10" points="221.72 153.42 209.88 169.4 233.97 169.4 221.72 153.42"/><polygon class="cls-10" points="221.67 161.41 206.63 181.7 237.22 181.7 221.67 161.41"/><polygon class="cls-10" points="221.64 172.32 204.57 195.34 239.28 195.34 221.64 172.32"/><polygon class="cls-10" points="221.64 184.66 204.57 207.68 239.28 207.68 221.64 184.66"/><polygon class="cls-10" points="153.65 151.47 141.81 167.45 165.9 167.45 153.65 151.47"/><polygon class="cls-10" points="153.6 159.46 138.55 179.75 169.15 179.75 153.6 159.46"/><polygon class="cls-10" points="153.56 170.37 136.5 193.39 171.21 193.39 153.56 170.37"/><polygon class="cls-10" points="130.01 141.32 118.17 157.3 142.26 157.3 130.01 141.32"/><polygon class="cls-10" points="129.96 149.31 114.92 169.6 145.51 169.6 129.96 149.31"/><polygon class="cls-10" points="129.93 160.22 112.86 183.24 147.57 183.24 129.93 160.22"/><polygon class="cls-10" points="129.47 170.44 112.41 193.46 147.11 193.46 129.47 170.44"/><polygon class="cls-10" points="129.47 181.95 112.41 204.97 147.11 204.97 129.47 181.95"/><polygon class="cls-10" points="97.8 137.69 85.96 153.67 110.05 153.67 97.8 137.69"/><polygon class="cls-10" points="97.75 145.68 82.7 165.97 113.3 165.97 97.75 145.68"/><polygon class="cls-10" points="97.71 156.59 80.65 179.61 115.36 179.61 97.71 156.59"/><polygon class="cls-10" points="97.26 166.81 80.19 189.83 114.9 189.83 97.26 166.81"/><polygon class="cls-10" points="97.26 178.32 80.19 201.34 114.9 201.34 97.26 178.32"/><polygon class="cls-11" points="141.83 146.1 129.99 162.08 154.08 162.08 141.83 146.1"/><polygon class="cls-11" points="141.78 154.09 126.73 174.38 157.33 174.38 141.78 154.09"/><polygon class="cls-11" points="141.75 165 124.68 188.02 159.39 188.02 141.75 165"/><polygon class="cls-11" points="141.75 177.41 124.68 200.43 159.39 200.43 141.75 177.41"/><polygon class="cls-11" points="141.69 186.76 121.42 214.1 162.65 214.1 141.69 186.76"/><polygon class="cls-11" points="184.97 174.38 173.12 190.36 197.22 190.36 184.97 174.38"/><polygon class="cls-11" points="184.91 182.37 169.87 202.66 200.47 202.66 184.91 182.37"/><polygon class="cls-11" points="184.88 193.28 167.81 216.3 202.52 216.3 184.88 193.28"/><polygon class="cls-11" points="109.85 165.99 98 181.97 122.1 181.97 109.85 165.99"/><polygon class="cls-11" points="109.8 173.98 94.75 194.28 125.35 194.28 109.8 173.98"/><polygon class="cls-11" points="109.76 184.9 92.7 207.91 127.4 207.91 109.76 184.9"/><polygon class="cls-11" points="225.72 165.8 213.87 181.78 237.96 181.78 225.72 165.8"/><polygon class="cls-11" points="225.66 173.79 210.62 194.08 241.22 194.08 225.66 173.79"/><polygon class="cls-11" points="225.63 184.7 208.56 207.72 243.27 207.72 225.63 184.7"/><polygon class="cls-12" points="208.44 190.63 201.11 200.52 216.02 200.52 208.44 190.63"/><polygon class="cls-12" points="208.41 195.58 199.1 208.14 218.03 208.14 208.41 195.58"/><polygon class="cls-12" points="208.38 202.33 197.82 216.58 219.3 216.58 208.38 202.33"/><polygon class="cls-12" points="119.41 186.77 112.08 196.66 126.99 196.66 119.41 186.77"/><polygon class="cls-12" points="119.38 191.71 110.07 204.27 129 204.27 119.38 191.71"/><polygon class="cls-12" points="119.36 198.47 108.8 212.71 130.28 212.71 119.36 198.47"/><polygon class="cls-12" points="92.57 188.04 85.24 197.93 100.15 197.93 92.57 188.04"/><polygon class="cls-12" points="92.54 192.99 83.23 205.55 102.16 205.55 92.54 192.99"/><polygon class="cls-12" points="92.52 199.74 81.96 213.99 103.44 213.99 92.52 199.74"/><polygon class="cls-11" points="245.92 162.27 234.08 178.25 258.17 178.25 245.92 162.27"/><polygon class="cls-11" points="245.87 170.26 230.82 190.55 261.42 190.55 245.87 170.26"/><polygon class="cls-11" points="245.84 181.17 228.77 204.19 263.48 204.19 245.84 181.17"/><polygon class="cls-11" points="302.7 128 290.86 143.98 314.95 143.98 302.7 128"/><polygon class="cls-11" points="302.65 135.99 287.61 156.28 318.2 156.28 302.65 135.99"/><polygon class="cls-11" points="302.62 146.9 285.55 169.92 320.26 169.92 302.62 146.9"/><polygon class="cls-11" points="302.62 168.91 285.55 191.93 320.26 191.93 302.62 168.91"/><polygon class="cls-11" points="258.65 158.5 246.8 174.47 270.9 174.47 258.65 158.5"/><polygon class="cls-11" points="258.59 166.48 243.55 186.78 274.15 186.78 258.59 166.48"/><polygon class="cls-11" points="258.56 177.4 241.5 200.42 276.2 200.42 258.56 177.4"/><polygon class="cls-11" points="276.52 148.47 264.68 164.45 288.77 164.45 276.52 148.47"/><polygon class="cls-11" points="276.52 141.35 264.68 157.33 288.77 157.33 276.52 141.35"/><polygon class="cls-11" points="276.47 156.46 261.42 176.76 292.02 176.76 276.47 156.46"/><polygon class="cls-11" points="276.43 167.38 259.37 190.4 294.07 190.4 276.43 167.38"/><polygon class="cls-12" points="224.65 184.8 217.32 194.69 232.23 194.69 224.65 184.8"/><polygon class="cls-12" points="224.62 189.75 215.31 202.3 234.25 202.3 224.62 189.75"/><polygon class="cls-12" points="224.6 196.5 214.04 210.74 235.52 210.74 224.6 196.5"/><polygon class="cls-12" points="224.6 204.67 214.04 218.91 235.52 218.91 224.6 204.67"/><polygon class="cls-12" points="259.36 172.75 252.03 182.64 266.94 182.64 259.36 172.75"/><polygon class="cls-12" points="259.33 177.69 250.02 190.25 268.95 190.25 259.33 177.69"/><polygon class="cls-12" points="259.31 184.44 248.75 198.69 270.22 198.69 259.31 184.44"/><polygon class="cls-12" points="259.31 192.62 248.75 206.86 270.22 206.86 259.31 192.62"/><polygon class="cls-12" points="288.69 159.45 281.36 169.34 296.27 169.34 288.69 159.45"/><polygon class="cls-12" points="288.66 164.4 279.35 176.96 298.28 176.96 288.66 164.4"/><polygon class="cls-12" points="288.64 171.15 278.08 185.4 299.56 185.4 288.64 171.15"/><polygon class="cls-12" points="288.64 179.32 278.08 193.57 299.56 193.57 288.64 179.32"/><polygon class="cls-11" points="161.33 164.24 149.49 180.22 173.58 180.22 161.33 164.24"/><polygon class="cls-11" points="161.28 172.23 146.23 192.52 176.83 192.52 161.28 172.23"/><polygon class="cls-11" points="161.24 183.14 144.18 206.16 178.88 206.16 161.24 183.14"/><polygon class="cls-12" points="162.52 184.47 155.19 194.36 170.1 194.36 162.52 184.47"/><polygon class="cls-12" points="162.49 189.41 153.18 201.97 172.11 201.97 162.49 189.41"/><polygon class="cls-12" points="162.47 196.17 151.91 210.41 173.39 210.41 162.47 196.17"/><polygon class="cls-10" points="341.4 128.89 329.55 144.87 353.64 144.87 341.4 128.89"/><polygon class="cls-10" points="341.34 136.88 326.3 157.18 356.9 157.18 341.34 136.88"/><polygon class="cls-10" points="341.31 147.8 324.25 170.81 358.95 170.81 341.31 147.8"/><polygon class="cls-10" points="341.31 161.24 324.25 184.26 358.95 184.26 341.31 161.24"/><polygon class="cls-10" points="362.7 117.87 350.86 133.85 374.95 133.85 362.7 117.87"/><polygon class="cls-10" points="362.65 125.86 347.61 146.15 378.2 146.15 362.65 125.86"/><polygon class="cls-10" points="362.61 136.77 345.55 159.79 380.26 159.79 362.61 136.77"/><polygon class="cls-10" points="362.61 148.28 345.55 171.3 380.26 171.3 362.61 148.28"/><polygon class="cls-10" points="362.61 162.28 345.55 185.29 380.26 185.29 362.61 162.28"/><polygon class="cls-11" points="325.95 138.83 314.1 154.81 338.19 154.81 325.95 138.83"/><polygon class="cls-11" points="325.89 146.82 310.85 167.11 341.45 167.11 325.89 146.82"/><polygon class="cls-11" points="325.86 157.73 308.79 180.75 343.5 180.75 325.86 157.73"/><polygon class="cls-11" points="352.15 146.49 340.3 162.47 364.4 162.47 352.15 146.49"/><polygon class="cls-11" points="352.1 154.48 337.05 174.77 367.65 174.77 352.1 154.48"/><polygon class="cls-11" points="352.06 165.39 335 188.41 369.7 188.41 352.06 165.39"/><polygon class="cls-11" points="384.11 144.5 372.26 160.48 396.35 160.48 384.11 144.5"/><polygon class="cls-11" points="384.05 152.49 369.01 172.78 399.61 172.78 384.05 152.49"/><polygon class="cls-11" points="384.02 163.41 366.95 186.42 401.66 186.42 384.02 163.41"/><polygon class="cls-12" points="315.52 159.78 308.19 169.66 323.1 169.66 315.52 159.78"/><polygon class="cls-12" points="315.49 164.72 306.18 177.28 325.11 177.28 315.49 164.72"/><polygon class="cls-12" points="315.47 171.47 304.91 185.72 326.38 185.72 315.47 171.47"/><polygon class="cls-12" points="338.61 154.91 331.28 164.8 346.19 164.8 338.61 154.91"/><polygon class="cls-12" points="338.58 159.85 329.27 172.41 348.2 172.41 338.58 159.85"/><polygon class="cls-12" points="338.56 166.61 328 180.85 349.48 180.85 338.56 166.61"/><polygon class="cls-12" points="367.98 159.62 360.65 169.5 375.56 169.5 367.98 159.62"/><polygon class="cls-12" points="367.94 164.56 358.63 177.12 377.57 177.12 367.94 164.56"/><polygon class="cls-12" points="367.92 171.31 357.36 185.56 378.84 185.56 367.92 171.31"/><polygon class="cls-12" points="162.47 203.13 151.91 217.37 173.39 217.37 162.47 203.13"/><polygon class="cls-12" points="162.47 210.25 151.91 224.49 173.39 224.49 162.47 210.25"/><polygon class="cls-12" points="274.69 179.71 267.36 189.6 282.27 189.6 274.69 179.71"/><polygon class="cls-12" points="274.65 184.65 265.35 197.21 284.28 197.21 274.65 184.65"/><polygon class="cls-12" points="274.63 191.41 264.07 205.65 285.55 205.65 274.63 191.41"/><polygon class="cls-12" points="302.78 151.75 295.45 161.64 310.36 161.64 302.78 151.75"/><polygon class="cls-12" points="302.75 156.69 293.44 169.25 312.37 169.25 302.75 156.69"/><polygon class="cls-12" points="302.73 163.45 292.17 177.69 313.64 177.69 302.73 163.45"/><polygon class="cls-12" points="302.73 171.47 292.17 185.72 313.64 185.72 302.73 171.47"/><polygon class="cls-12" points="302.73 179.83 292.17 194.07 313.64 194.07 302.73 179.83"/><path class="cls-13" d="M398.38,191.17s-81.15-30-110.57,5.82C245.24,248.8,92.2,223.18,92.2,223.18l-22.52,55.9,147.21,83.37,111-35.45L394,305.91l7.47-72.57L419,210.85Z"/><path class="cls-14" d="M193.91,108.55H164s-5.82.24-5.82-6.83,7.61-6.13,7.61-6.13a6.31,6.31,0,0,1,1.86-4.91c2.24-2.13,7.13-2.16,9.53.51,0,0,.09-6.56,9-6.38,10.49.21,8.25,11,8.25,11s6.21.53,6.21,6.34S193.91,108.55,193.91,108.55Z"/><path class="cls-14" d="M160.62,101.26H130.76s-5.82.24-5.82-6.82,7.61-6.14,7.61-6.14a6.28,6.28,0,0,1,1.85-4.91c2.24-2.12,7.13-2.15,9.53.51,0,0,.1-6.56,9-6.38,10.48.22,8.25,11,8.25,11s6.2.54,6.2,6.35S160.62,101.26,160.62,101.26Z"/><path class="cls-14" d="M270.82,92.85H241s-5.82.23-5.82-6.83,7.61-6.14,7.61-6.14A6.28,6.28,0,0,1,244.6,75c2.24-2.12,7.13-2.15,9.53.51,0,0,.1-6.56,9-6.38,10.48.22,8.25,11,8.25,11s6.2.54,6.2,6.35S270.82,92.85,270.82,92.85Z"/><path class="cls-15" d="M305.09,57.75a7.35,7.35,0,0,0-2.75,5.48c0,3.44,2.71,3.25,2.71,3.25s2.84.19,2.84-3.25A7.33,7.33,0,0,0,305.09,57.75Z"/><path class="cls-15" d="M288.68,64.4a7.15,7.15,0,0,0,2.19,5.7c2.6,2.43,4.38.51,4.38.51s2.14-1.75-.46-4.18A8.34,8.34,0,0,0,288.68,64.4Z"/><path class="cls-15" d="M282.1,80A8.16,8.16,0,0,0,288,82.55c3.67,0,3.47-2.54,3.47-2.54s.2-2.65-3.47-2.65A8.11,8.11,0,0,0,282.1,80Z"/><path class="cls-15" d="M289.2,95.35a8.35,8.35,0,0,0,6.09-2.06c2.59-2.43.54-4.09.54-4.09s-1.87-2-4.47.42A7.16,7.16,0,0,0,289.2,95.35Z"/><path class="cls-15" d="M305.83,101.51A7.35,7.35,0,0,0,308.59,96c0-3.44-2.72-3.25-2.72-3.25S303,92.59,303,96A7.33,7.33,0,0,0,305.83,101.51Z"/><path class="cls-15" d="M322.25,94.86a7.19,7.19,0,0,0-2.19-5.7c-2.6-2.43-4.38-.51-4.38-.51s-2.14,1.75.45,4.18A8.36,8.36,0,0,0,322.25,94.86Z"/><path class="cls-15" d="M328.83,79.28A8.16,8.16,0,0,0,323,76.71c-3.67,0-3.48,2.54-3.48,2.54s-.19,2.65,3.48,2.65A8.11,8.11,0,0,0,328.83,79.28Z"/><path class="cls-15" d="M321.73,63.91a8.37,8.37,0,0,0-6.09,2c-2.6,2.44-.54,4.1-.54,4.1s1.87,2,4.46-.42A7.14,7.14,0,0,0,321.73,63.91Z"/><ellipse class="cls-15" cx="305.46" cy="79.63" rx="11.18" ry="10.47"/><text></text><polygon class="cls-16" points="149.16 250.68 149.59 248.81 134.96 200.46 149.16 250.68"/><polygon class="cls-16" points="153.76 247.67 154.45 246.94 132.15 210.95 153.76 247.67"/><polygon class="cls-16" points="152.63 250.8 152.63 247.79 126.93 216.4 152.63 250.8"/><polygon class="cls-16" points="130.8 269.92 130.8 266.91 105.1 235.52 130.8 269.92"/><polygon class="cls-16" points="129.84 260.97 129.02 261 120.03 235.51 129.84 260.97"/><polygon class="cls-16" points="154.43 254.94 135.76 243.47 154.43 257.19 154.43 254.94"/><path class="cls-16" d="M153.43,240.65l1,2.82s9.89-30.41,12.35-36.66Z"/><path class="cls-16" d="M167,246.89l1,2.82s9.88-30.42,12.35-36.66Z"/><path class="cls-16" d="M158.76,248.65l-1.08,2.13s1.54-28.89,4-35.13Z"/><polygon class="cls-16" points="147.25 250.11 145.68 249.05 156.68 214.43 147.25 250.11"/><polygon class="cls-16" points="131.57 257.14 130.01 256.08 141.01 221.46 131.57 257.14"/><polygon class="cls-16" points="123.21 256.76 121.66 257.22 119.54 221.6 123.21 256.76"/><path class="cls-17" d="M163.85,248s2.93-13.2,7.6-23.12"/><path class="cls-18" d="M170.34,227.26l-.43-.16a2,2,0,0,1-1.24-2.69l5.16-12.22A2.27,2.27,0,0,1,176.7,211l.43.16a2,2,0,0,1,1.24,2.69l-5.16,12.22A2.27,2.27,0,0,1,170.34,227.26Z"/><path class="cls-18" d="M176.75,211.84l.15.06a.78.78,0,0,0,1-.35l.44-.88a.71.71,0,0,0-.38-.95l-.14-.06a.79.79,0,0,0-1,.35l-.43.88A.69.69,0,0,0,176.75,211.84Z"/><path class="cls-19" d="M155.91,250.33s-9-24.11-10.27-34.89"/><path class="cls-18" d="M146,218l-.45.06a2.2,2.2,0,0,1-2.52-1.73l-2.11-13a2.11,2.11,0,0,1,1.85-2.37l.46-.06a2.2,2.2,0,0,1,2.52,1.74l2.11,13A2.1,2.1,0,0,1,146,218Z"/><path class="cls-18" d="M142.79,202.22H143a.72.72,0,0,0,.68-.79l-.09-1a.76.76,0,0,0-.84-.64h-.16a.74.74,0,0,0-.69.79l.1,1A.76.76,0,0,0,142.79,202.22Z"/><path class="cls-19" d="M156.24,253.9s-1.08-25.51,1-36.18"/><path class="cls-18" d="M156.78,220.3l-.46-.06a2.11,2.11,0,0,1-1.87-2.35l2-13a2.21,2.21,0,0,1,2.51-1.76l.45.06a2.12,2.12,0,0,1,1.88,2.35l-2,13A2.21,2.21,0,0,1,156.78,220.3Z"/><path class="cls-18" d="M158.79,204.44l.16,0a.77.77,0,0,0,.9-.56l.2-1a.71.71,0,0,0-.59-.84l-.16,0a.76.76,0,0,0-.9.56l-.21,1A.73.73,0,0,0,158.79,204.44Z"/><path class="cls-17" d="M132.63,253.73s-1.08-25.52,1-36.18"/><path class="cls-18" d="M133.17,220.13l-.46-.06a2.12,2.12,0,0,1-1.87-2.35l2-13a2.2,2.2,0,0,1,2.51-1.75l.45.06a2.11,2.11,0,0,1,1.88,2.35l-2,13A2.22,2.22,0,0,1,133.17,220.13Z"/><path class="cls-18" d="M135.18,204.27l.16,0a.78.78,0,0,0,.9-.57l.2-.95a.71.71,0,0,0-.59-.84l-.16,0a.76.76,0,0,0-.9.56l-.21.95A.73.73,0,0,0,135.18,204.27Z"/><path class="cls-17" d="M128.74,259s1.08-25.51-1-36.17"/><path class="cls-18" d="M128.2,225.4l.46-.06a2.1,2.1,0,0,0,1.87-2.35l-2-13a2.2,2.2,0,0,0-2.51-1.76l-.45.07a2.09,2.09,0,0,0-1.87,2.35l2,13A2.2,2.2,0,0,0,128.2,225.4Z"/><path class="cls-18" d="M126.33,209.4l-.15,0a.77.77,0,0,1-.9-.56l-.21-1a.73.73,0,0,1,.6-.84l.16,0a.77.77,0,0,1,.9.56l.2,1A.71.71,0,0,1,126.33,209.4Z"/><path class="cls-20" d="M124.7,254.06s.53-12.48-.5-17.7"/><path class="cls-18" d="M124.44,237.62l.22,0a1,1,0,0,0,.92-1.15l-1-6.36a1.09,1.09,0,0,0-1.23-.86l-.22,0a1,1,0,0,0-.92,1.15l1,6.36A1.09,1.09,0,0,0,124.44,237.62Z"/><path class="cls-18" d="M123.24,229.6l-.08,0a.38.38,0,0,1-.44-.28l-.1-.46a.36.36,0,0,1,.29-.42H123a.37.37,0,0,1,.44.27l.1.47A.35.35,0,0,1,123.24,229.6Z"/><path class="cls-20" d="M120.76,254s-3-12.18-5.4-17"/><path class="cls-18" d="M115.94,238.22l.21-.09a1,1,0,0,0,.56-1.33L114,230.9a1.13,1.13,0,0,0-1.43-.53l-.2.08a1,1,0,0,0-.57,1.34l2.73,5.9A1.11,1.11,0,0,0,115.94,238.22Z"/><path class="cls-18" d="M112.55,230.77l-.07,0a.38.38,0,0,1-.5-.16l-.22-.42a.33.33,0,0,1,.16-.47l.07,0a.38.38,0,0,1,.5.15l.23.43A.34.34,0,0,1,112.55,230.77Z"/><polygon class="cls-16" points="326.43 255.48 327.37 253.78 326.86 203.53 326.43 255.48"/><polygon class="cls-16" points="331.71 253.71 332.59 253.18 321.2 212.96 331.71 253.71"/><polygon class="cls-16" points="329.74 256.45 330.58 253.55 314.63 216.93 329.74 256.45"/><polygon class="cls-16" points="303.3 269.51 304.15 266.61 288.19 229.98 303.3 269.51"/><polygon class="cls-16" points="304.89 260.64 304.09 260.46 302.59 233.66 304.89 260.64"/><path class="cls-16" d="M333.37,246.86l.17,3s18.1-26.9,22.23-32.32Z"/><path class="cls-16" d="M344.68,256.21l.17,3s18.1-26.9,22.23-32.31Z"/><path class="cls-16" d="M336.26,255.89l-1.64,1.79s9.61-27.49,13.74-32.9Z"/><polygon class="cls-16" points="324.74 254.46 323.53 253.05 343.88 222.37 324.74 254.46"/><polygon class="cls-16" points="307.64 257.38 306.43 255.97 326.78 225.28 307.64 257.38"/><polygon class="cls-16" points="299.68 254.94 298.06 255 306.03 220.12 299.68 254.94"/><path class="cls-17" d="M341.36,256.5s6.54-12,13.83-20.43"/><path class="cls-18" d="M353.45,238.11l-.37-.26a2,2,0,0,1-.44-2.9l8.42-10.51a2.32,2.32,0,0,1,3.09-.42l.37.26a2,2,0,0,1,.45,2.9l-8.42,10.52A2.32,2.32,0,0,1,353.45,238.11Z"/><path class="cls-18" d="M364,224.82l.13.1a.8.8,0,0,0,1.07-.09l.67-.75a.69.69,0,0,0-.09-1l-.12-.09a.8.8,0,0,0-1.08.08l-.67.75A.69.69,0,0,0,364,224.82Z"/><path class="cls-19" d="M333,256.81s-1.86-25.48-.08-36.19"/><path class="cls-18" d="M332.54,223.21l-.46-.05a2.12,2.12,0,0,1-1.94-2.3l1.62-13.05a2.18,2.18,0,0,1,2.45-1.82l.46,0a2.1,2.1,0,0,1,1.94,2.29L335,221.39A2.19,2.19,0,0,1,332.54,223.21Z"/><path class="cls-18" d="M333.92,207.16l.15,0a.76.76,0,0,0,.89-.58l.17-1a.72.72,0,0,0-.62-.83l-.16,0a.76.76,0,0,0-.88.58l-.18,1A.73.73,0,0,0,333.92,207.16Z"/><path class="cls-19" d="M332.35,260.33s6.14-24.87,11.17-34.64"/><path class="cls-18" d="M342.32,228.05l-.42-.17a2,2,0,0,1-1.14-2.73l5.61-12a2.28,2.28,0,0,1,2.91-1.08l.42.18a2,2,0,0,1,1.15,2.72l-5.61,12A2.28,2.28,0,0,1,342.32,228.05Z"/><path class="cls-18" d="M348.73,213.25l.14.06a.79.79,0,0,0,1-.31l.47-.87a.7.7,0,0,0-.34-1l-.15-.07a.78.78,0,0,0-1,.32l-.47.87A.69.69,0,0,0,348.73,213.25Z"/><path class="cls-17" d="M309.62,254.34s6.14-24.88,11.17-34.64"/><path class="cls-18" d="M319.6,222.06l-.42-.17a2,2,0,0,1-1.15-2.73l5.61-12a2.28,2.28,0,0,1,2.91-1.08l.42.18a2,2,0,0,1,1.15,2.72L322.51,221A2.28,2.28,0,0,1,319.6,222.06Z"/><path class="cls-18" d="M326,207.26l.15.06a.78.78,0,0,0,1-.31l.47-.87a.7.7,0,0,0-.34-1l-.14-.06a.78.78,0,0,0-1,.32l-.47.87A.7.7,0,0,0,326,207.26Z"/><path class="cls-17" d="M304.39,258.47s8.22-24.35,9.19-35.15"/><path class="cls-18" d="M313.32,225.93l.46,0a2.2,2.2,0,0,0,2.47-1.81l1.71-13a2.11,2.11,0,0,0-1.93-2.31l-.46,0a2.19,2.19,0,0,0-2.46,1.8l-1.71,13.05A2.11,2.11,0,0,0,313.32,225.93Z"/><path class="cls-18" d="M316,210h-.15a.75.75,0,0,1-.72-.77l.07-1a.75.75,0,0,1,.82-.66h.16a.73.73,0,0,1,.71.76l-.07,1A.77.77,0,0,1,316,210Z"/><path class="cls-20" d="M301.88,252.7s4-11.91,4.5-17.19"/><path class="cls-18" d="M306.25,236.78l.23,0a1.07,1.07,0,0,0,1.2-.88l.84-6.39a1,1,0,0,0-.94-1.13l-.23,0a1.07,1.07,0,0,0-1.2.88l-.84,6.38A1,1,0,0,0,306.25,236.78Z"/><path class="cls-18" d="M307.35,228.75h-.07a.35.35,0,0,1-.35-.38l0-.47a.38.38,0,0,1,.4-.33h.08a.36.36,0,0,1,.35.37l0,.48A.36.36,0,0,1,307.35,228.75Z"/><path class="cls-20" d="M298.09,251.7s.57-12.48-.44-17.7"/><path class="cls-18" d="M297.89,235.26l.22,0a1,1,0,0,0,.92-1.14l-1-6.37a1.07,1.07,0,0,0-1.22-.86l-.22,0a1,1,0,0,0-.92,1.15l1,6.36A1.09,1.09,0,0,0,297.89,235.26Z"/><path class="cls-18" d="M296.72,227.24l-.08,0a.38.38,0,0,1-.44-.28l-.1-.47a.36.36,0,0,1,.3-.41h.07a.36.36,0,0,1,.44.27l.1.47A.35.35,0,0,1,296.72,227.24Z"/><polygon class="cls-16" points="267.81 251.78 266.75 250.14 263.99 199.96 267.81 251.78"/><polygon class="cls-16" points="262.42 250.32 261.51 249.84 270.26 209.04 262.42 250.32"/><polygon class="cls-16" points="264.57 252.95 263.53 250.1 277.07 212.63 264.57 252.95"/><polygon class="cls-16" points="291.8 264.47 290.77 261.62 304.31 224.15 291.8 264.47"/><polygon class="cls-16" points="289.64 255.71 290.43 255.48 290.18 228.64 289.64 255.71"/><polygon class="cls-16" points="269.42 250.67 270.54 249.2 248.23 219.73 269.42 250.67"/><polygon class="cls-16" points="286.68 252.6 287.8 251.13 265.48 221.66 286.68 252.6"/><polygon class="cls-16" points="294.47 249.72 296.09 249.69 285.86 215.32 294.47 249.72"/><path class="cls-19" d="M261.3,253.49s.2-25.54-2.27-36.13"/><path class="cls-18" d="M259.6,219.92l.46-.08a2.1,2.1,0,0,0,1.79-2.4l-2.47-12.94a2.22,2.22,0,0,0-2.57-1.67l-.45.07a2.1,2.1,0,0,0-1.79,2.41L257,218.25A2.2,2.2,0,0,0,259.6,219.92Z"/><path class="cls-18" d="M257.18,204l-.15,0a.77.77,0,0,1-.92-.54l-.24-.94a.71.71,0,0,1,.57-.86l.15,0a.77.77,0,0,1,.92.53l.24,1A.72.72,0,0,1,257.18,204Z"/><path class="cls-17" d="M284.5,249.69s-7.75-24.48-13.4-33.94"/><path class="cls-18" d="M272.45,218l.41-.2a2,2,0,0,0,1-2.78l-6.38-11.71a2.3,2.3,0,0,0-3-.9l-.41.19a2,2,0,0,0-1,2.79l6.38,11.71A2.3,2.3,0,0,0,272.45,218Z"/><path class="cls-18" d="M265.09,203.63l-.14.07a.8.8,0,0,1-1.05-.26l-.52-.84a.69.69,0,0,1,.28-1l.14-.07a.79.79,0,0,1,1,.26l.52.84A.69.69,0,0,1,265.09,203.63Z"/><path class="cls-17" d="M290,253.51s-9.79-23.83-11.46-34.56"/><path class="cls-18" d="M279,221.54l-.45.08a2.22,2.22,0,0,1-2.58-1.66L273.37,207a2.1,2.1,0,0,1,1.77-2.42l.46-.08a2.22,2.22,0,0,1,2.58,1.66l2.55,12.92A2.09,2.09,0,0,1,279,221.54Z"/><path class="cls-18" d="M275.23,205.82l.16,0a.73.73,0,0,0,.66-.8l-.14-1a.75.75,0,0,0-.85-.62l-.16,0a.73.73,0,0,0-.66.8l.13,1A.77.77,0,0,0,275.23,205.82Z"/><path class="cls-20" d="M292.13,247.61s-4.79-11.66-5.61-16.91"/><path class="cls-18" d="M286.73,232l-.23,0a1.09,1.09,0,0,1-1.26-.81L284,224.88a1,1,0,0,1,.87-1.19l.22,0a1.07,1.07,0,0,1,1.26.81l1.25,6.32A1,1,0,0,1,286.73,232Z"/><path class="cls-18" d="M285.1,224h.08a.35.35,0,0,0,.32-.39l-.06-.48a.38.38,0,0,0-.42-.3h-.08a.36.36,0,0,0-.32.39l.06.48A.38.38,0,0,0,285.1,224Z"/><path class="cls-20" d="M295.85,246.4s-1.39-12.43-.72-17.7"/><path class="cls-18" d="M295,230l-.23,0a1,1,0,0,1-1-1.09l.55-6.41a1.06,1.06,0,0,1,1.16-.93l.23,0a1,1,0,0,1,1,1.09l-.55,6.41A1.07,1.07,0,0,1,295,230Z"/><path class="cls-18" d="M295.62,221.9h.08a.37.37,0,0,0,.42-.3l.07-.47a.35.35,0,0,0-.32-.39h-.08a.37.37,0,0,0-.42.3l-.07.47A.35.35,0,0,0,295.62,221.9Z"/><path class="cls-21" d="M108.26,277.74c-1.86-21.23,49.65-34.19,84.33-31.09s21,22.3,55.77,8.26c33.91-13.68,46.85-16.53,68.36-10.85s87.09,17.15,74.8,35.37-76.58,49.29-102.87,45.42-58.7,16.77-83.39,14.06S110.12,299,108.26,277.74Z"/><path class="cls-11" d="M182.84,266.68s-1.19-6-10.11-.74.47,16.78,9.71,18l3.22-2.83,1.56,2.2s11.48-1.41,14.56-6.93S195.87,258.74,182.84,266.68Z"/><path class="cls-22" d="M189.73,267.78a9,9,0,0,0-.19-4.26s-2.76.87-2.75,3S189.73,267.78,189.73,267.78Z"/><path class="cls-23" d="M191.39,268.61s2.45-2.9,4.19-3.22c0,0,1.55,3.07.7,4S191.39,268.61,191.39,268.61Z"/><path class="cls-24" d="M189.13,269.52s.79-3-4-6c0,0-3.47,7.33,2.56,9Z"/><path class="cls-24" d="M190.79,270.17s2.54-3.23,7.25-1.06c0,0-3.42,7-8.6,3.39Z"/><path class="cls-25" d="M187.87,273.83s-4-7,4.67-9.25C192.54,264.58,196.52,271.29,187.87,273.83Z"/><path class="cls-22" d="M176.82,272a6.64,6.64,0,0,0-2.45-1.52s-.57,1.68.61,2.47S176.82,272,176.82,272Z"/><path class="cls-23" d="M178.1,271.2s-.88-2-.41-3c0,0,2.31.41,2.49,1.16S178.1,271.2,178.1,271.2Z"/><path class="cls-24" d="M177.56,272.91s-1.37-1.51-4.82-.32c0,0,2.78,4.48,6,2.16Z"/><path class="cls-24" d="M178.55,272.35s-.84-2.47,2.16-4c0,0,2.6,4.32-1.37,5.49Z"/><path class="cls-25" d="M179.49,275.16s-5.44-.69-3.39-5.79C176.1,269.37,181.34,270,179.49,275.16Z"/><path class="cls-26" d="M210,275.43s-1.19-6-10.11-.73.47,16.78,9.71,18l3.22-2.83,1.56,2.19s11.48-1.41,14.56-6.93S223,267.49,210,275.43Z"/><path class="cls-27" d="M214.93,275.33a9,9,0,0,0-.19-4.26s-2.77.87-2.76,3S214.93,275.33,214.93,275.33Z"/><path class="cls-27" d="M217.11,276.42s1.93-3.16,3.67-3.48c0,0,1.55,3.08.69,4S217.11,276.42,217.11,276.42Z"/><path class="cls-15" d="M214.32,277.07s.79-3-3.95-6c0,0-3.48,7.34,2.56,9Z"/><path class="cls-15" d="M216,277.72s2.55-3.23,7.25-1.05c0,0-3.42,7-8.6,3.39Z"/><path class="cls-28" d="M213.06,281.38s-4-7,4.68-9.25C217.74,272.13,221.72,278.84,213.06,281.38Z"/><path class="cls-27" d="M225.14,284.47a5.9,5.9,0,0,0-.76-2.66s-1.61.91-1.29,2.23S225.14,284.47,225.14,284.47Z"/><path class="cls-27" d="M226.59,285.22s.83-2.6,1.87-3c0,0,1.44,1.73,1,2.41S226.59,285.22,226.59,285.22Z"/><path class="cls-15" d="M225,285.64s0-2-3.38-3.23c0,0-1.09,5.08,3,5.34Z"/><path class="cls-15" d="M226.17,285.83s1.11-2.37,4.41-1.62c0,0-1.11,4.85-4.91,3.27Z"/><path class="cls-28" d="M224.88,288.53s-3.59-3.89,1.55-6.45C226.43,282.08,230,285.78,224.88,288.53Z"/><polyline class="cls-29" points="204.22 139.64 205.61 143.56 213.87 143.56 215.38 139.64"/><path class="cls-30" d="M208.13,88.26s-18.39,8.24-16.82,21.64,13.63,29,13.63,29h9.87s13.41-13.87,13.25-25.5-5-20.75-10-22.37S211,87.23,208.13,88.26Z"/><path class="cls-31" d="M209.26,88.12s-22.57,1.71-20.91,23.93c0,0,0,9.32,16.59,26.88h2S177.57,103.66,209.26,88.12Z"/><path class="cls-31" d="M210.5,88.12s22.57,1.71,20.91,23.93c0,0,0,9.32-16.6,26.88h-2S242.19,103.66,210.5,88.12Z"/><path class="cls-32" d="M208.1,139.16h1.66l.08-51S193.83,103.43,208.1,139.16Z"/><path class="cls-32" d="M210,88.22l-.1,50.83h1.89C226,103.32,210,88.22,210,88.22Z"/><rect class="cls-30" x="203.43" y="138.88" width="12.75" height="1.28" rx="0.49" ry="0.49"/><rect class="cls-33" x="204.79" y="143.2" width="10.16" height="1.03"/><rect class="cls-33" x="205.49" y="144.03" width="8.86" height="4.43"/><rect class="cls-34" x="206.57" y="144.63" width="0.55" height="3.33"/><rect class="cls-34" x="208.12" y="144.63" width="0.55" height="3.33"/><rect class="cls-34" x="209.66" y="144.63" width="0.55" height="3.33"/><rect class="cls-34" x="211.21" y="144.63" width="0.55" height="3.33"/><rect class="cls-34" x="212.76" y="144.63" width="0.55" height="3.33"/><g id="v78dhF"><path class="cls-35" d="M277.81,268.61c5.22-6.84,18.16-8.33,24.44-2.67-4.42-2.25-9.16-3.89-14.05-2.38-3.67,1.13-7,3.3-10.46,5Z"/><path class="cls-35" d="M205,264.93c4.89,3.41,10.48,2.33,15.85,2.46C215.23,268.56,209.79,268.5,205,264.93Z"/><path class="cls-35" d="M173.72,293.58c-5.25,1.46-9.26,1.08-12.61-1.1Z"/><path class="cls-35" d="M200.26,290.34c-5.24,1.46-9.26,1.08-12.6-1.09Z"/><path class="cls-35" d="M233,264.69c4.14-2.82,11.3-3,16.35-.36C243.83,262.81,238.37,262.35,233,264.69Z"/><path class="cls-35" d="M165.37,259.53c.22-.55.29-1.44.68-1.59,3.73-1.42,7.55-1.92,11.48-.43-4.15.22-8.6-1.12-12.16,2Z"/><path class="cls-35" d="M214.63,304.24a13.11,13.11,0,0,1-10.12,2.65Z"/><path class="cls-35" d="M156.87,264.6c1.08-3,5.58-5.71,8.5-5.07h0l-8.54,5Z"/><path class="cls-35" d="M156.83,264.56l-9,2.11-.23-.92,9.2-1.16S156.83,264.56,156.83,264.56Z"/><path class="cls-35" d="M144.51,284.32l7.84,2-.15.58-7.83-1.7Z"/><path class="cls-35" d="M277.74,268.56,271,272l-.5-1,7.29-2.39Z"/></g><ellipse class="cls-36" cx="168.13" cy="246.08" rx="3.32" ry="1.97"/><ellipse class="cls-36" cx="154.43" cy="248.25" rx="3.32" ry="1.97"/><ellipse class="cls-36" cx="145.64" cy="249.71" rx="3.31" ry="1.98" transform="translate(-58.83 45.37) rotate(-14.77)"/><ellipse class="cls-36" cx="123.65" cy="254.68" rx="3.31" ry="1.98" transform="translate(-60.83 39.93) rotate(-14.77)"/><ellipse class="cls-37" cx="131.58" cy="254.35" rx="3.31" ry="1.98" transform="translate(-60.48 41.94) rotate(-14.77)"/><ellipse class="cls-37" cx="150.19" cy="249.71" rx="3.31" ry="1.98" transform="translate(-58.68 46.53) rotate(-14.77)"/><ellipse class="cls-37" cx="159.15" cy="245.54" rx="3.32" ry="1.97" transform="translate(-10.08 6.84) rotate(-2.39)"/><ellipse class="cls-36" cx="124.83" cy="256.95" rx="2.48" ry="1.47"/><ellipse class="cls-36" cx="135.51" cy="251.79" rx="2.47" ry="1.48" transform="translate(-59.7 42.85) rotate(-14.77)"/><ellipse class="cls-37" cx="128.37" cy="255.27" rx="2.47" ry="1.48" transform="translate(-60.82 41.15) rotate(-14.77)"/><ellipse class="cls-37" cx="136.5" cy="253.62" rx="2.48" ry="1.47" transform="translate(-10.44 5.9) rotate(-2.39)"/><ellipse class="cls-38" cx="138.28" cy="250.11" rx="3.32" ry="1.97" transform="translate(-10.29 5.97) rotate(-2.39)"/><ellipse class="cls-38" cx="157.76" cy="247.67" rx="2.48" ry="1.47"/><ellipse class="cls-38" cx="142.31" cy="251.96" rx="2.47" ry="1.48" transform="translate(-59.52 44.59) rotate(-14.77)"/><ellipse class="cls-39" cx="160.8" cy="247.67" rx="1.57" ry="0.94" transform="translate(-57.81 49.16) rotate(-14.77)"/><ellipse class="cls-39" cx="138.97" cy="252.72" rx="1.57" ry="0.94" transform="translate(-59.82 43.76) rotate(-14.77)"/><ellipse class="cls-39" cx="164.72" cy="246.55" rx="1.57" ry="0.94" transform="translate(-57.4 50.12) rotate(-14.77)"/><ellipse class="cls-37" cx="142.28" cy="249.86" rx="1.45" ry="0.87" transform="matrix(0.97, -0.25, 0.25, 0.97, -58.98, 44.51)"/><ellipse class="cls-36" cx="120.76" cy="259.69" rx="1.08" ry="0.65" transform="translate(-62.2 39.35) rotate(-14.77)"/><ellipse class="cls-37" cx="163.24" cy="245.78" rx="1.08" ry="0.64" transform="translate(-10.09 7.01) rotate(-2.39)"/><ellipse class="cls-38" cx="132.91" cy="252.88" rx="1.45" ry="0.86" transform="translate(-10.41 5.75) rotate(-2.39)"/><ellipse class="cls-38" cx="162.74" cy="246.96" rx="1.08" ry="0.65" transform="matrix(0.97, -0.25, 0.25, 0.97, -57.57, 49.63)"/><ellipse class="cls-39" cx="153.34" cy="249.66" rx="0.92" ry="0.55" transform="translate(-58.57 47.32) rotate(-14.77)"/><ellipse class="cls-39" cx="134.56" cy="254.93" rx="0.9" ry="0.56" transform="matrix(0.86, -0.51, 0.51, 0.86, -111.83, 105.31)"/><ellipse class="cls-39" cx="128.45" cy="253.62" rx="0.9" ry="0.56" transform="translate(-112.03 101.98) rotate(-30.91)"/><ellipse class="cls-36" cx="137.71" cy="252.22" rx="0.9" ry="0.56" transform="translate(-109.99 106.54) rotate(-30.91)"/><ellipse class="cls-39" cx="127.1" cy="256.31" rx="1.17" ry="0.7" transform="translate(-61.13 40.86) rotate(-14.77)"/><ellipse class="cls-39" cx="155.96" cy="246.35" rx="1.17" ry="0.7" transform="translate(-10.12 6.7) rotate(-2.39)"/><ellipse class="cls-39" cx="147.01" cy="250.61" rx="1.17" ry="0.7" transform="translate(-59.02 45.75) rotate(-14.77)"/><ellipse class="cls-38" cx="121.64" cy="258.03" rx="2.48" ry="1.47" transform="translate(-10.63 5.29) rotate(-2.39)"/><ellipse class="cls-36" cx="303.59" cy="240.63" rx="3.32" ry="1.97"/><ellipse class="cls-36" cx="289.9" cy="242.8" rx="3.32" ry="1.97"/><ellipse class="cls-36" cx="281.1" cy="244.25" rx="3.31" ry="1.98" transform="translate(-52.97 79.71) rotate(-14.77)"/><ellipse class="cls-36" cx="259.11" cy="249.22" rx="3.31" ry="1.98" transform="translate(-54.96 74.27) rotate(-14.77)"/><ellipse class="cls-37" cx="267.04" cy="248.89" rx="3.31" ry="1.98" transform="translate(-54.62 76.28) rotate(-14.77)"/><ellipse class="cls-37" cx="285.65" cy="244.25" rx="3.31" ry="1.98" transform="translate(-52.82 80.87) rotate(-14.77)"/><ellipse class="cls-37" cx="294.61" cy="240.09" rx="3.32" ry="1.97" transform="translate(-9.74 12.47) rotate(-2.39)"/><ellipse class="cls-36" cx="260.3" cy="251.5" rx="2.48" ry="1.47"/><ellipse class="cls-36" cx="270.97" cy="246.34" rx="2.47" ry="1.48" transform="translate(-53.83 77.2) rotate(-14.77)"/><ellipse class="cls-37" cx="263.83" cy="249.81" rx="2.47" ry="1.48" transform="translate(-54.96 75.49) rotate(-14.77)"/><ellipse class="cls-37" cx="271.96" cy="248.17" rx="2.48" ry="1.47" transform="translate(-10.09 11.53) rotate(-2.39)"/><ellipse class="cls-38" cx="273.74" cy="244.66" rx="3.32" ry="1.97" transform="translate(-9.94 11.6) rotate(-2.39)"/><ellipse class="cls-38" cx="293.22" cy="242.22" rx="2.48" ry="1.47"/><ellipse class="cls-38" cx="277.77" cy="246.51" rx="2.47" ry="1.48" transform="translate(-53.65 78.93) rotate(-14.77)"/><ellipse class="cls-39" cx="296.26" cy="242.22" rx="1.57" ry="0.94" transform="translate(-51.95 83.51) rotate(-14.77)"/><ellipse class="cls-39" cx="274.43" cy="247.26" rx="1.57" ry="0.94" transform="translate(-53.96 78.11) rotate(-14.77)"/><ellipse class="cls-39" cx="300.18" cy="241.1" rx="1.57" ry="0.94" transform="translate(-51.53 84.47) rotate(-14.77)"/><ellipse class="cls-37" cx="277.74" cy="244.4" rx="1.45" ry="0.87" transform="translate(-53.12 78.86) rotate(-14.77)"/><ellipse class="cls-37" cx="298.7" cy="240.33" rx="1.08" ry="0.64" transform="translate(-9.74 12.64) rotate(-2.39)"/><ellipse class="cls-38" cx="268.37" cy="247.43" rx="1.45" ry="0.86" transform="translate(-10.06 11.38) rotate(-2.39)"/><ellipse class="cls-38" cx="298.2" cy="241.51" rx="1.08" ry="0.65" transform="translate(-51.71 83.98) rotate(-14.77)"/><ellipse class="cls-39" cx="270.02" cy="249.48" rx="0.9" ry="0.56" transform="translate(-89.8 174.11) rotate(-30.91)"/><ellipse class="cls-39" cx="263.91" cy="248.17" rx="0.9" ry="0.56" transform="translate(-89.99 170.79) rotate(-30.91)"/><ellipse class="cls-36" cx="273.17" cy="246.76" rx="0.9" ry="0.56" transform="translate(-87.96 175.34) rotate(-30.91)"/><ellipse class="cls-39" cx="262.56" cy="250.85" rx="1.17" ry="0.7" transform="translate(-55.26 75.2) rotate(-14.77)"/><ellipse class="cls-39" cx="291.43" cy="240.89" rx="1.17" ry="0.7" transform="translate(-9.77 12.34) rotate(-2.39)"/><ellipse class="cls-39" cx="282.48" cy="245.16" rx="1.17" ry="0.7" transform="translate(-53.16 80.09) rotate(-14.77)"/><ellipse class="cls-38" cx="257.11" cy="252.57" rx="2.48" ry="1.47" transform="translate(-10.29 10.92) rotate(-2.39)"/><ellipse class="cls-36" cx="348.82" cy="252.14" rx="2" ry="3.28" transform="translate(-22.87 469.17) rotate(-66.14)"/><ellipse class="cls-36" cx="335.58" cy="248.22" rx="2" ry="3.28" transform="translate(-27.17 454.73) rotate(-66.14)"/><ellipse class="cls-36" cx="327.05" cy="245.76" rx="1.98" ry="3.32" transform="translate(34 531.2) rotate(-81.17)"/><ellipse class="cls-36" cx="305.06" cy="240.78" rx="1.98" ry="3.32" transform="translate(20.3 505.26) rotate(-81.17)"/><ellipse class="cls-37" cx="312.28" cy="243.88" rx="1.98" ry="3.32" transform="translate(23.35 515.01) rotate(-81.17)"/><ellipse class="cls-37" cx="331.1" cy="247.7" rx="1.98" ry="3.32" transform="translate(35.5 536.85) rotate(-81.17)"/><ellipse class="cls-37" cx="341.1" cy="247.83" rx="1.99" ry="3.29" transform="translate(-13.99 475.16) rotate(-68.63)"/><ellipse class="cls-36" cx="305" cy="243.31" rx="1.49" ry="2.45" transform="translate(-40.88 423.84) rotate(-66.14)"/><ellipse class="cls-36" cx="317.02" cy="243.28" rx="1.47" ry="2.47" transform="translate(27.95 519.19) rotate(-81.17)"/><ellipse class="cls-37" cx="308.97" cy="243.32" rx="1.47" ry="2.47" transform="translate(21.1 511.27) rotate(-81.17)"/><ellipse class="cls-37" cx="317" cy="245.33" rx="1.49" ry="2.45" transform="translate(-26.98 451.14) rotate(-68.63)"/><ellipse class="cls-38" cx="320.3" cy="242.97" rx="1.99" ry="3.29" transform="translate(-22.68 452.71) rotate(-68.63)"/><ellipse class="cls-38" cx="338.82" cy="249.13" rx="1.49" ry="2.45" transform="translate(-26.06 458.23) rotate(-66.14)"/><ellipse class="cls-38" cx="322.98" cy="246.34" rx="1.47" ry="2.47" transform="translate(29.98 527.67) rotate(-81.17)"/><ellipse class="cls-39" cx="341.53" cy="250.43" rx="0.94" ry="1.57" transform="matrix(0.15, -0.99, 0.99, 0.15, 41.64, 549.46)"/><ellipse class="cls-39" cx="319.64" cy="245.58" rx="0.94" ry="1.57" transform="matrix(0.15, -0.99, 0.99, 0.15, 27.9, 523.74)"/><ellipse class="cls-39" cx="345.56" cy="251.11" rx="0.94" ry="1.57" transform="translate(44.38 554.02) rotate(-81.17)"/><ellipse class="cls-37" cx="323.98" cy="244.45" rx="0.86" ry="1.45" transform="matrix(0.15, -0.99, 0.99, 0.15, 32.69, 527.06)"/><ellipse class="cls-37" cx="344.62" cy="249.79" rx="0.65" ry="1.07" transform="translate(-13.57 479.69) rotate(-68.63)"/><ellipse class="cls-38" cx="314.17" cy="243.14" rx="0.87" ry="1.44" transform="translate(-26.74 447.11) rotate(-68.63)"/><ellipse class="cls-38" cx="343.59" cy="250.63" rx="0.64" ry="1.08" transform="translate(43.19 551.67) rotate(-81.17)"/><ellipse class="cls-39" cx="314.64" cy="245.66" rx="0.92" ry="0.55" transform="translate(-26.3 38.03) rotate(-6.64)"/><ellipse class="cls-39" cx="309.84" cy="241.89" rx="0.92" ry="0.55" transform="translate(-25.89 37.45) rotate(-6.64)"/><ellipse class="cls-36" cx="318.77" cy="244.6" rx="0.92" ry="0.55" transform="translate(-26.15 38.5) rotate(-6.64)"/><ellipse class="cls-39" cx="307.34" cy="243.7" rx="0.7" ry="1.17" transform="translate(19.34 509.98) rotate(-81.17)"/><ellipse class="cls-39" cx="337.87" cy="247.18" rx="0.7" ry="1.16" transform="translate(-15.44 471.75) rotate(-68.63)"/><ellipse class="cls-39" cx="327.83" cy="247.15" rx="0.7" ry="1.17" transform="translate(33.28 533.15) rotate(-81.17)"/><ellipse class="cls-38" cx="301.64" cy="242.9" rx="1.49" ry="2.45" transform="translate(-34.48 435.29) rotate(-68.63)"/><path class="cls-40" d="M144,270v.66a6.93,6.93,0,0,0,1.31,4.1,16.12,16.12,0,0,0,2.29,2.53,17.1,17.1,0,0,1,2.07,2.27c.07.1.14.22.22.35-.22.1-.34.25-.26.48s.26.25.5.24l-.05.47c.24,0,.27.1.12.29a2.92,2.92,0,0,1-1.16.82c-.12,0-.25.08-.26-.11a8.34,8.34,0,0,1-1.12,0,3.48,3.48,0,0,1-1.66-.71,7.15,7.15,0,0,1-2.55-4,11.75,11.75,0,0,1-.48-3,9.47,9.47,0,0,1,.91-4.24,1.74,1.74,0,0,1,.1-.19Zm2,7.39v-.37h-.05l-.08.32h-.59s-.09-.08-.09-.12,0-.31.07-.47,0-.23.05-.35h0s0,.08,0,.12c0,.22-.07.45-.12.67,0,.05-.06.14-.1.14a5.9,5.9,0,0,1-.6,0l0-.62h.68v0l-.68,0,.1-.66.3,0v0l-.27-.05,0-.3h-.05l-.09.32-.6,0c0-.24.05-.45.09-.65,0,0,.09-.09.15-.1a1.1,1.1,0,0,1,.26,0V275l-.37,0,.06-.44h0a1.63,1.63,0,0,0-.07.3c0,.14-.08.17-.21.14l-.36-.08,0,.06.54.15-.09.72-.23,0v0l.22.05c0,.19,0,.39,0,.58,0,0-.06.07-.11.09a.59.59,0,0,1-.13,0v0l.23,0v1h.05l0-.31h.47V278l-.17.06c.16,0,.17.14.16.26s0,.29,0,.43h.07v-.6H145l0,.64-.23,0v.05l.25,0v.7H145v-.72l.64,0a3.62,3.62,0,0,0,0,.45c0,.16-.05.22-.22.21a.94.94,0,0,0-.29,0v.05l.52,0v.57h0v-.6h.78v-.07h-.6c-.06,0-.15-.06-.15-.09a5.06,5.06,0,0,1,0-.55h1.21v-.07h-1.22l.06-.7h.74v-.06h-.75C145.84,277.84,145.77,277.6,145.93,277.42Zm2.83,1.49v.33a.47.47,0,0,1-.51.47,3.84,3.84,0,0,1-.48,0,1.8,1.8,0,0,0-1.2.34.76.76,0,0,0-.36.78.6.6,0,0,0,.08.21l.06,0a.53.53,0,0,1,0-.12,1.2,1.2,0,0,1,0-.47,1.16,1.16,0,0,1,1-.59c.29,0,.59,0,.88,0A.57.57,0,0,0,148.76,278.91Zm-.87,3.16a.41.41,0,0,0,.42-.38.4.4,0,0,0-.41-.39.39.39,0,1,0,0,.77Z"/><path class="cls-41" d="M142.89,280l-.5-.31a.86.86,0,0,0,.43-.9.68.68,0,0,1,0-.15.22.22,0,0,1,.38-.1.29.29,0,0,1,.07.12l.05,0,0-.25a7.6,7.6,0,0,0,2.09,2.94l0,.05c-.26,0-.53.09-.79.11a2.91,2.91,0,0,1-1.43-.22,1.52,1.52,0,0,1-.67-.61.35.35,0,0,1,.17-.55Z"/><path class="cls-41" d="M144.2,271.34c0-.35-.06-.65-.07-.95a7,7,0,0,1,0-1.59,2.53,2.53,0,0,1,.49-1.2.61.61,0,0,1,.46-.31c.21,0,.28,0,.29.24a2,2,0,0,1-.36,1.09.52.52,0,0,0-.06.15l.41-.26,0,0a.64.64,0,0,1,0,.2,3.33,3.33,0,0,1-.27.61,9.91,9.91,0,0,0-.44,1.14c-.1.23-.22.45-.33.68Z"/><path class="cls-41" d="M147.5,276.85c.18,0,.35,0,.43,0s.09-.23.13-.35a.53.53,0,0,1,.06-.1c.2-.25.35-.24.5,0a2.75,2.75,0,0,0,.2.38,2.6,2.6,0,0,0,.31.25c.07.07.17.15.17.22,0,.37,0,.74-.05,1.11,0,.07,0,.14-.06.26Z"/><path class="cls-41" d="M142.61,274.42l.3,2.31a.16.16,0,0,1-.09,0c-.36-.19-.73-.38-1.08-.59a.58.58,0,0,1-.21-.25c-.08-.15,0-.23.16-.2l.25,0a2.53,2.53,0,0,1-.18-.37c-.09-.25,0-.36.29-.34a3.21,3.21,0,0,1,.39.05C142.34,274.81,142.44,274.63,142.61,274.42Z"/><path class="cls-42" d="M149.87,280l.17.51c-.2,0-.33,0-.37-.16S149.67,280.12,149.87,280Z"/><path class="cls-43" d="M145.93,277.42c-.16.18-.09.42-.17.66h.75v.06h-.74l-.06.7h1.22v.07h-1.21a5.06,5.06,0,0,0,0,.55s.09.09.15.09h.6v.07h-.78v.6h0v-.57l-.52,0v-.05a.94.94,0,0,1,.29,0c.17,0,.23-.05.22-.21a3.62,3.62,0,0,1,0-.45l-.64,0v.72h-.06v-.7l-.25,0v-.05l.23,0,0-.64h-.65v.6h-.07c0-.14,0-.29,0-.43s0-.22-.16-.26l.17-.06v-.58h-.47l0,.31h-.05v-1l-.23,0v0a.59.59,0,0,0,.13,0s.11-.06.11-.09c0-.19,0-.39,0-.58l-.22-.05v0l.23,0,.09-.72-.54-.15,0-.06.36.08c.13,0,.2,0,.21-.14a1.63,1.63,0,0,1,.07-.3h0L144,275l.37,0v.06a1.1,1.1,0,0,0-.26,0c-.06,0-.14.06-.15.1,0,.2-.06.41-.09.65l.6,0,.09-.32h.05l0,.3.27.05v0l-.3,0-.1.66.68,0v0h-.68l0,.62a5.9,5.9,0,0,0,.6,0s.09-.09.1-.14c.05-.22.08-.45.12-.67,0,0,0-.08,0-.12h0c0,.12,0,.24-.05.35s-.06.32-.07.47.06.12.09.12h.59l.08-.32h.05Zm-.89.63h.66l.08-.6h-.69Zm-.73,0h.57A.11.11,0,0,0,145,278c0-.17,0-.34,0-.53h-.67Zm.69.74h.63l.05-.63H145Zm-.68-2.15.09-.67-.59,0,0,.68Zm0,.66,0-.59c-.16,0-.3,0-.44,0a.13.13,0,0,0-.1.1c0,.16,0,.32,0,.5Z"/><path class="cls-43" d="M148.76,278.91a.57.57,0,0,1-.53.88c-.29,0-.59,0-.88,0a1.16,1.16,0,0,0-1,.59,1.2,1.2,0,0,0,0,.47.53.53,0,0,0,0,.12l-.06,0a.6.6,0,0,1-.08-.21.76.76,0,0,1,.36-.78,1.8,1.8,0,0,1,1.2-.34,3.84,3.84,0,0,0,.48,0,.47.47,0,0,0,.51-.47Z"/><path class="cls-43" d="M147.89,282.07a.39.39,0,1,1,0-.77.4.4,0,0,1,.41.39A.41.41,0,0,1,147.89,282.07Zm0-.08a.32.32,0,0,0,.35-.29.34.34,0,0,0-.68,0A.31.31,0,0,0,147.89,282Z"/><path class="cls-41" d="M145,278.05l.05-.6h.69l-.08.6Z"/><path class="cls-41" d="M144.31,278.05l0-.62H145c0,.19,0,.36,0,.53a.11.11,0,0,1-.08.08Z"/><path class="cls-41" d="M145,278.79l0-.63h.65l-.05.63Z"/><path class="cls-41" d="M144.32,276.64l-.54,0,0-.68.59,0Z"/><path class="cls-41" d="M144.27,277.3h-.51c0-.18,0-.34,0-.5a.13.13,0,0,1,.1-.1c.14,0,.28,0,.44,0Z"/><path class="cls-42" d="M147.89,282a.31.31,0,0,1-.33-.31.34.34,0,0,1,.68,0A.32.32,0,0,1,147.89,282Z"/><path class="cls-40" d="M193.52,302.69l.7.07a8.26,8.26,0,0,0,4.49-.81,16.53,16.53,0,0,0,2.92-1.88,18.27,18.27,0,0,1,2.61-1.7l.4-.17a.41.41,0,0,0,.48.29c.23-.05.3-.21.32-.44l.49.1c.06-.22.13-.25.31-.09a2.7,2.7,0,0,1,.76,1.16c0,.12.06.25-.14.24a7,7,0,0,1-.12,1,3.16,3.16,0,0,1-.93,1.47,7.86,7.86,0,0,1-4.45,2,14.62,14.62,0,0,1-3.24.15,11.45,11.45,0,0,1-4.42-1.27l-.2-.11Zm8-1.09-.4,0v.05l.33.11c0,.19,0,.37-.06.54s-.1.08-.14.07a4.31,4.31,0,0,1-.49-.11l-.37-.08v0s.07,0,.12.05l.7.17s.14.07.14.11,0,.37,0,.57l-.66-.12.07-.63h0l-.11.62-.69-.15v-.29h0l-.08.25-.31-.07v.05l.33.11-.11.55-.68-.14c-.05,0-.09-.09-.1-.15a2.09,2.09,0,0,1,0-.25h-.06l-.06.35-.47-.1v0l.31.09c.15,0,.18.1.13.22l-.12.32.06,0,.21-.49.76.16v.21h.05l.06-.2.62.1s.07.06.09.11a.48.48,0,0,1,0,.12h0l.07-.22,1.07.1v0l-.33-.06,0-.43.62.05,0,.17c.06-.15.17-.14.3-.12l.45,0v-.07l-.64-.06.06-.61.68.1v.22H203l.07-.22.75.07v-.06l-.77-.07.1-.59.48.06c.17,0,.23.07.19.23a1.22,1.22,0,0,0,0,.27h.06l.08-.47.6.05v-.05l-.64-.06.08-.72h-.07c0,.18,0,.37-.07.56s-.07.13-.1.13c-.2,0-.39,0-.59-.08l.12-1.13h-.07l-.12,1.14-.74-.12.08-.7h-.06l-.08.7C202,301.73,201.74,301.76,201.57,301.6Zm1.86-2.48c.12,0,.24,0,.35,0,.33.05.47.21.45.51a3.42,3.42,0,0,1,0,.46,1.56,1.56,0,0,0,.23,1.15.9.9,0,0,0,.8.42,2,2,0,0,0,.23-.06l0-.06a.57.57,0,0,1-.13,0,1.31,1.31,0,0,1-.5-.08,1.07,1.07,0,0,1-.53-1c0-.28,0-.55,0-.83C204.33,299.21,204,299,203.43,299.12Zm3.27,1.12a.39.39,0,0,0-.36-.43.4.4,0,0,0-.45.34.39.39,0,0,0,.36.43A.4.4,0,0,0,206.7,300.24Z"/><path class="cls-41" d="M204,304.69l-.38.44a1,1,0,0,0-.92-.5.45.45,0,0,1-.16,0,.21.21,0,0,1-.06-.37l.13-.05,0-.05-.27-.05a8.38,8.38,0,0,0,3.34-1.65l0,0c0,.25,0,.5,0,.75a2.37,2.37,0,0,1-.37,1.31,1.58,1.58,0,0,1-.71.56.41.41,0,0,1-.58-.21C204.05,304.8,204,304.75,204,304.69Z"/><path class="cls-41" d="M194.94,302.6c-.38,0-.7,0-1,0a7.93,7.93,0,0,1-1.69-.14,3,3,0,0,1-1.23-.57c-.14-.12-.3-.25-.28-.47s.08-.25.28-.24a2.34,2.34,0,0,1,1.12.44l.16.08-.24-.42,0,0a1.29,1.29,0,0,1,.21.05,4.48,4.48,0,0,1,.62.31,8.75,8.75,0,0,0,1.17.53c.23.11.46.25.69.37Z"/><path class="cls-41" d="M201.13,300.08c0-.17.05-.32,0-.41s-.23-.1-.35-.15l-.1-.07c-.25-.21-.23-.34.08-.46a2.72,2.72,0,0,0,.43-.15,2.43,2.43,0,0,0,.3-.26c.07-.06.17-.14.24-.13.4,0,.79.1,1.18.15a1.5,1.5,0,0,1,.27.08Z"/><path class="cls-41" d="M198.05,304.39l2.49,0s0,0,0,.08c-.25.32-.48.63-.74.94a.66.66,0,0,1-.28.17c-.17.07-.25,0-.21-.17a2,2,0,0,1,.08-.22c-.14,0-.28.1-.42.13s-.38,0-.33-.3.06-.23.09-.36A.65.65,0,0,1,198.05,304.39Z"/><path class="cls-42" d="M204.75,298.2l.56-.11c0,.18-.06.3-.21.32A.29.29,0,0,1,204.75,298.2Z"/><path class="cls-43" d="M201.57,301.6c.17.16.43.13.69.22l.08-.7h.06l-.08.7.74.12.12-1.14h.07l-.12,1.13c.2,0,.39.07.59.08,0,0,.09-.08.1-.13s.05-.38.07-.56H204l-.08.72.64.06v.05l-.6-.05-.08.47h-.06a1.22,1.22,0,0,1,0-.27c0-.16,0-.22-.19-.23l-.48-.06-.1.59.77.07v.06l-.75-.07-.07.22h-.05v-.22l-.68-.1-.06.61.64.06v.07l-.45,0c-.13,0-.24,0-.3.12l0-.17-.62-.05,0,.43.33.06v0l-1.07-.1-.07.22h0a.48.48,0,0,0,0-.12c0-.05-.06-.11-.09-.11l-.62-.1-.06.2h-.05v-.21l-.76-.16-.21.49-.06,0,.12-.32c.05-.12,0-.2-.13-.22l-.31-.09v0l.47.1.06-.35h.06a2.09,2.09,0,0,0,0,.25c0,.06,0,.14.1.15l.68.14.11-.55-.33-.11v-.05l.31.07.08-.25h0v.29l.69.15.11-.62h0l-.07.63.66.12c0-.2,0-.39,0-.57s-.09-.09-.14-.11l-.7-.17s-.08,0-.12-.05v0l.37.08a4.31,4.31,0,0,0,.49.11s.13,0,.14-.07,0-.35.06-.54l-.33-.11v-.05Zm.58.9.07-.62-.63-.14-.07.65Zm-.07.67c0-.18,0-.36,0-.53a.11.11,0,0,0-.08-.08l-.56-.1-.07.63Zm.85-.56L203,302l-.67-.11-.06.61Zm-2.35.41-.71-.15-.09.55.72.1Zm.69.12-.61-.1a2.14,2.14,0,0,0-.06.41s.05.1.09.1.35,0,.53.06Z"/><path class="cls-43" d="M203.43,299.12c.52-.17.9.09.89.57,0,.28,0,.55,0,.83a1.07,1.07,0,0,0,.53,1,1.31,1.31,0,0,0,.5.08.57.57,0,0,0,.13,0l0,.06a2,2,0,0,1-.23.06.9.9,0,0,1-.8-.42,1.56,1.56,0,0,1-.23-1.15,3.42,3.42,0,0,0,0-.46c0-.3-.12-.46-.45-.51C203.67,299.13,203.55,299.13,203.43,299.12Z"/><path class="cls-43" d="M206.7,300.24a.4.4,0,0,1-.45.34.39.39,0,0,1-.36-.43.4.4,0,0,1,.45-.34A.39.39,0,0,1,206.7,300.24Zm-.08,0a.31.31,0,0,0-.27-.36.34.34,0,0,0-.39.28.33.33,0,0,0,.3.35A.32.32,0,0,0,206.62,300.24Z"/><path class="cls-41" d="M202.15,302.5l-.63-.11.07-.65.63.14Z"/><path class="cls-41" d="M202.08,303.17l-.66-.08.07-.63.56.1a.11.11,0,0,1,.08.08C202.12,302.81,202.1,303,202.08,303.17Z"/><path class="cls-41" d="M202.93,302.61l-.66-.09.06-.61.67.11Z"/><path class="cls-41" d="M200.58,303l-.08.5-.72-.1.09-.55Z"/><path class="cls-41" d="M201.27,303.14l-.05.47c-.18,0-.36,0-.53-.06s-.09-.07-.09-.1a2.14,2.14,0,0,1,.06-.41Z"/><path class="cls-42" d="M206.62,300.24a.32.32,0,0,1-.36.27.33.33,0,0,1-.3-.35.34.34,0,0,1,.39-.28A.31.31,0,0,1,206.62,300.24Z"/><path class="cls-40" d="M266.59,256.72l.2-.11a11.45,11.45,0,0,1,4.41-1.27,14.71,14.71,0,0,1,3.25.15,7.86,7.86,0,0,1,4.45,2,3.06,3.06,0,0,1,.92,1.47,7,7,0,0,1,.13,1c.19,0,.17.12.13.24a2.59,2.59,0,0,1-.75,1.16c-.18.16-.25.13-.31-.08l-.5.09c0-.23-.08-.39-.31-.44a.4.4,0,0,0-.48.29l-.4-.17a19,19,0,0,1-2.62-1.7,16.09,16.09,0,0,0-2.91-1.88,8.26,8.26,0,0,0-4.49-.81l-.7.07Zm8.76.9.07.7h.06l-.07-.69.74-.13.12,1.14h.07l-.12-1.13a5.77,5.77,0,0,1,.58-.08s.1.08.11.13,0,.38.07.56h.07l-.08-.72.64-.06v-.05l-.6.05-.09-.47h-.05a1.22,1.22,0,0,0,0,.27c0,.16,0,.22-.2.23l-.47.06-.1-.59.77-.07v-.06l-.74.07-.07-.22H276v.22l-.68.1-.06-.61.64-.06v-.07l-.46,0c-.13,0-.23,0-.29-.12l-.05.17-.61.05-.05-.43.33-.06v0l-1.07.1-.07-.22h0s0,.09,0,.12-.05.11-.09.11l-.61.1-.06-.2h-.05V256l-.76.16-.21-.49-.07,0c.05.11.09.22.13.33s0,.19-.13.21a2.8,2.8,0,0,0-.31.09v0l.47-.1.06.35H272a1,1,0,0,1,0-.25c0-.05.05-.14.1-.15l.68-.14.1.55-.33.11,0,.05.31-.07.08.25H273v-.29l.69-.15.1.62h.05l-.07-.63.66-.12c0,.2.05.39.05.57s-.09.09-.15.11l-.7.17-.12.05,0,0,.37-.08a3.88,3.88,0,0,1,.49-.11s.13,0,.13.07a4.41,4.41,0,0,1,.07.54l-.33.11v.05l.4,0C274.83,257.68,275.09,257.71,275.35,257.62Zm2.06,2.13c0-.28-.05-.55-.05-.83a1.05,1.05,0,0,1,.53-1,1.31,1.31,0,0,1,.5-.08.57.57,0,0,1,.13,0l0-.06a2,2,0,0,0-.23-.06.89.89,0,0,0-.8.42,1.61,1.61,0,0,0-.24,1.15,3.41,3.41,0,0,1,.05.46c0,.3-.13.46-.45.51-.11,0-.23,0-.35,0C277,260.49,277.41,260.23,277.41,259.75Zm1.93-.89a.39.39,0,0,0-.36.43.4.4,0,0,0,.45.34.39.39,0,0,0,.36-.43A.4.4,0,0,0,279.34,258.86Z"/><path class="cls-41" d="M277.08,254.75l-.37-.44a1,1,0,0,1-.92.5.76.76,0,0,0-.16,0,.2.2,0,0,0-.06.37l.13,0,0,.05-.27.05a8.51,8.51,0,0,1,3.34,1.65l.05,0c0-.25,0-.5,0-.75a2.38,2.38,0,0,0-.38-1.31,1.5,1.5,0,0,0-.7-.56.41.41,0,0,0-.58.21Z"/><path class="cls-41" d="M268,256.84c-.38,0-.7,0-1,0a8,8,0,0,0-1.69.14,3.08,3.08,0,0,0-1.23.57.55.55,0,0,0-.27.47c0,.19.07.25.28.24a2.38,2.38,0,0,0,1.12-.44.6.6,0,0,1,.16-.08l-.24.42,0,0a1.29,1.29,0,0,0,.21-.05,4.48,4.48,0,0,0,.62-.31,8.75,8.75,0,0,1,1.17-.53c.23-.11.46-.25.68-.37Z"/><path class="cls-41" d="M274.21,259.36c0,.17.06.32,0,.41s-.23.1-.35.15a.41.41,0,0,0-.11.07c-.25.21-.22.34.09.46a2.6,2.6,0,0,1,.42.15,2.51,2.51,0,0,1,.31.26c.07.06.17.14.24.13.4,0,.79-.1,1.18-.15a1.5,1.5,0,0,0,.27-.08Z"/><path class="cls-41" d="M271.14,255.05l2.48,0a.2.2,0,0,0,0-.08c-.24-.32-.48-.63-.73-.94a.73.73,0,0,0-.28-.17c-.17-.07-.25,0-.21.17a2,2,0,0,0,.08.22c-.15,0-.28-.1-.42-.13s-.38.05-.33.31a3,3,0,0,0,.09.35A.64.64,0,0,0,271.14,255.05Z"/><path class="cls-42" d="M277.84,261.24l.56.11c0-.18-.06-.3-.21-.32A.29.29,0,0,0,277.84,261.24Z"/><path class="cls-43" d="M274.26,257.88v-.05l.33-.11a4.41,4.41,0,0,0-.07-.54s-.09-.08-.13-.07a3.88,3.88,0,0,0-.49.11l-.37.08,0,0,.12-.05.7-.17c.06,0,.15-.07.15-.11s0-.37-.05-.57l-.66.12.07.63h-.05l-.1-.62-.69.15v.29H273l-.08-.25-.31.07,0-.05.33-.11-.1-.55-.68.14s-.09.1-.1.15a1,1,0,0,0,0,.25h-.06l-.06-.35-.47.1v0a2.8,2.8,0,0,1,.31-.09c.15,0,.18-.1.13-.21s-.08-.22-.13-.33l.07,0,.21.49.76-.16v-.21h.05l.06.2.61-.1s.08-.06.09-.11,0-.08,0-.12h0l.07.22,1.07-.1v0l-.33.06.05.43.61-.05.05-.17c.06.15.16.15.29.12l.46,0v.07l-.64.06.06.61.68-.1v-.22h.05l.07.22.74-.07v.06l-.77.07.1.59.47-.06c.18,0,.24-.07.2-.23a1.22,1.22,0,0,1,0-.27h.05l.09.47.6-.05v.05l-.64.06.08.72H277c0-.18,0-.37-.07-.56s-.07-.13-.11-.13a5.77,5.77,0,0,0-.58.08l.12,1.13h-.07l-.12-1.14-.74.13.07.69h-.06l-.07-.7c-.26.09-.52.06-.69.22Zm.35-.83.07.65.63-.14-.07-.62Zm-.1-.69.07.62.55-.1a.11.11,0,0,0,.09-.08c0-.17,0-.35-.06-.53Zm.84.56.07.61.66-.11-.06-.59Zm-1.76-1-.73.1.1.55.71-.15Zm.72-.09c-.19,0-.36,0-.53.06s-.1.07-.09.1a3.26,3.26,0,0,0,.05.41l.62-.1Z"/><path class="cls-43" d="M276.52,260.32c.52.17.89-.09.89-.57,0-.28-.05-.55-.05-.83a1.05,1.05,0,0,1,.53-1,1.31,1.31,0,0,1,.5-.08.57.57,0,0,1,.13,0l0-.06a2,2,0,0,0-.23-.06.89.89,0,0,0-.8.42,1.61,1.61,0,0,0-.24,1.15,3.41,3.41,0,0,1,.05.46c0,.3-.13.46-.45.51C276.76,260.31,276.64,260.31,276.52,260.32Z"/><path class="cls-43" d="M279.43,259.63a.4.4,0,0,1-.45-.34.39.39,0,0,1,.36-.43.4.4,0,0,1,.45.34A.39.39,0,0,1,279.43,259.63Zm-.09-.7a.33.33,0,0,0-.29.35.34.34,0,0,0,.39.28.31.31,0,0,0,.27-.36A.32.32,0,0,0,279.34,258.93Z"/><path class="cls-41" d="M275.24,256.94l-.63.11.07.65.63-.14Z"/><path class="cls-41" d="M275.16,256.27l-.65.09.07.62.55-.1a.11.11,0,0,0,.09-.08C275.21,256.63,275.18,256.45,275.16,256.27Z"/><path class="cls-41" d="M276,256.83l-.67.09.07.61.66-.11Z"/><path class="cls-41" d="M273.67,256.42l-.08-.5-.73.1.1.55Z"/><path class="cls-41" d="M274.36,256.3l-.05-.47c-.19,0-.36,0-.53.06s-.1.07-.09.1a3.26,3.26,0,0,0,.05.41Z"/><path class="cls-42" d="M279.71,259.2a.32.32,0,0,0-.37-.27.33.33,0,0,0-.29.35.34.34,0,0,0,.39.28A.31.31,0,0,0,279.71,259.2Z"/></g><path class="cls-44" d="M498.94,283.12l-62.12-17.87s-18-16.72-53.42-14.41-43.48,11-52.17,12.68S267.87,275.63,248,276.78s-24.22,25.36-21.74,29.39c1.47,2.38,20.45,5,38.45,6.26,12.5.88,24.53,1.1,29.88.14,13-2.37,54.65-16.77,67.7-17.93"/><path class="cls-44" d="M139.29,313.2c-13.56,2.95-20.5,24.67-12.42,27.55s128.85,21.54,152,19.12,98.31-22.72,123.78-23.23,108.7,23.23,108.7,23.23l-3.87-78L302,293.49l-91.93,24.2S167.86,307,139.29,313.2Z"/><g class="cls-45"><path class="cls-6" d="M139.29,313.68c-13.56,3-20.5,24.68-12.42,27.56s128.85,21.53,152,19.12,98.31-22.72,123.78-23.23,108.7,23.23,108.7,23.23l-3.73-75L302,294l-91.93,24.2S167.86,307.46,139.29,313.68Z"/></g><g class="cls-46"><path class="cls-6" d="M362.28,295.13c-13,1.15-54.66,15.56-67.7,17.92-5.35,1-17.38.75-29.88-.13-18-1.26-37-3.89-38.45-6.27-2.48-4,1.86-28.23,21.74-29.39s74.54-11.52,83.24-13.25S348,253.64,383.4,251.33s53.42,14.41,53.42,14.41l62.12,17.86"/></g><g class="cls-47"><path class="cls-48" d="M259.7,311.78l3-21.08s-30.52-5.57-35.73,7.89,8.41,11.34,8.41,11.34Z"/></g><g class="cls-49"><path class="cls-48" d="M153.45,347.5l5.08-18.45s-26.49-8-32.67,3.48-4,9-4,9Z"/></g></g></g></g></svg>