<?xml version="1.0" encoding="utf-8"?>
<!-- Generator: Adobe Illustrator 22.0.1, SVG Export Plug-In . SVG Version: 6.00 Build 0)  -->
<svg version="1.1" id="Layer_1" xmlns="http://www.w3.org/2000/svg" xmlns:xlink="http://www.w3.org/1999/xlink" x="0px" y="0px"
	 viewBox="0 0 540.3 491.1" style="enable-background:new 0 0 540.3 491.1;" xml:space="preserve">
<style type="text/css">
	.st0{opacity:0.1;fill:#60BDA9;enable-background:new    ;}
	.st1{fill:#FFFFFF;}
</style>
<title>badges</title>
<path class="st0" d="M270,422.5v0.3c43.1,0,86.1,0,129.2,0c16.3,0,28.5-9.6,30.8-23.9c0.7-4.5,1.3-9,2-13.5
	c13.3-85.9,26.7-171.8,40.1-257.7c2.9-18.7-3.9-29.4-22-34.3c-61.9-16.8-125.8-24.8-189.9-23.8c-58.3,0.7-116.2,9-172.3,24.7
	c-15.3,4.3-22.3,15.7-19.8,31.6c14,90,28,180,42.1,269.9c2.8,18.2,12.9,26.8,31.3,26.8C184.3,422.5,227.2,422.5,270,422.5z"/>
<path class="st1" d="M53.9,125c-2.9-19.8,8.9-38.9,29-44c27-6.8,54.3-13,81.7-17.6c51.6-8.6,103.7-10.2,155.9-6.5
	c46.2,3.3,92,11.1,136.6,23.5c20.8,5.8,32.7,24.9,29.3,46.3c-3.6,22.6-7.1,45.2-10.6,67.9c-0.2,1.7-22.3,141.9-24.9,159.2
	c-2.4,15.6-4.5,31.2-7,46.8c-3.1,20.5-20.9,35.7-41.7,35.5c-88.3,0-176.6,0-264.8,0c-20.3,0-37.5-15.3-40.6-35.8
	c-4.9-31.8-9.8-63.7-14.6-95.5c-0.1-0.8-0.4-1.6-0.8-3.4 M270,422.2v0.3c43.1,0,86.1,0,129.2,0c16.3,0,28.5-9.6,30.9-23.9
	c0.7-4.5,1.3-9,2-13.5c13.3-85.9,26.7-171.8,40.1-257.8c2.9-18.7-3.9-29.4-22-34.3c-61.9-16.8-125.9-24.8-190-23.8
	c-58.3,0.7-116.2,9-172.3,24.7c-15.3,4.3-22.3,15.7-19.8,31.6c14,90,28,180,42.1,269.9c2.8,18.2,12.9,26.8,31.3,26.8
	C184.3,422.2,227.2,422.2,270,422.2z"/>
<path class="st1" d="M220.8,117.1c0,0-110.6,143.9-26.9,209.9c65.9,52.1,86.9-1.1,92.8-26l19.6,62.1l19.7-7.8l-28-58.8
	c21.3,14.2,73,38.8,85.6-44.3C399.8,146.9,220.8,117.1,220.8,117.1z M234.6,161.7l-6.3-16l6.5-2.6l6.3,16.1l41.9-4.6l0.8,7l-40,4.4
	l6.6,16.8l68-2.7l0.3,7l-65.5,2.6l8.2,20.8l0.5,1.4l86.6,3.5l-0.2,7l-83.1-2.1l7.9,19.9l85.8,14.6l-1.2,6.9l-81.5-13.8l12.5,31.6
	l-6.5,2.6l-12.5-31.6l-50.2,65.8l-5.6-4.2l52.8-69.1l-7.9-19.9l-59.3,58.2l-4.9-5l60.9-61.7l-0.6-1.4l-8.2-20.8L197,235l-4.6-5.3
	l51.5-44.4l-6.6-16.9l-32.2,24.1l-4.2-5.6"/>
</svg>
