<?xml version="1.0" encoding="utf-8"?>
<!-- Generator: Adobe Illustrator 22.0.1, SVG Export Plug-In . SVG Version: 6.00 Build 0)  -->
<svg version="1.1" id="Layer_1" xmlns="http://www.w3.org/2000/svg" xmlns:xlink="http://www.w3.org/1999/xlink" x="0px" y="0px"
	 viewBox="0 0 540.3 491.1" style="enable-background:new 0 0 540.3 491.1;" xml:space="preserve">
<style type="text/css">
	.st0{opacity:0.1;fill:#EAA74D;enable-background:new    ;}
	.st1{fill:#FFFFFF;}
	.st2{clip-path:url(#SVGID_2_);}
</style>
<title>badges</title>
<polygon class="st0" points="88,427.1 459.7,423.1 467.3,259.4 437.7,162.4 399.9,110.7 314.9,64 243.3,64 179.8,82.2 93.6,167.4 
	73.1,310.3 "/>
<path class="st1" d="M73.5,348.5H35.7l11.8-31.9c4.2-11.2,8.5-22.4,12.3-33.8c1-3,1,20.1,0,17.2c-7-19.6-14.4-39-21.6-58.5
	c-0.7-1.9-1.3-3.8-2.3-6.6h38.3c6.5-59,33.7-106,80.6-141c34.8-26,74.7-38.1,118-37.7c91.7,0.9,181.9,70,193.7,178.2h38.2
	c-5,13.6-9.7,26.3-14.4,38.9c-3.1,8.4-6.8,16.7-9.3,25.3c-1.2,4-1.3-17.9,0.1-13.9c7,20,14.7,39.8,22.1,59.7c0.4,1,0.6,2,1.1,3.7
	h-37.6c0,10.3,0.1,41.2,0,67.1c-0.1,14.3-5.5,19.5-19.9,19.5c-42.7-0.1-85.5-0.5-128.2-0.5c-74.8,0.1-149.7,0.2-224.6,0.6
	c-15.1,0-20.6-5.1-20.6-20.3c-0.1-32.8,0,1.9,0-30.9L73.5,348.5z M451.9,419.5v-7.9c0-74.4,0-81.2,0-155.6c0-6.9-0.3-13.8-1.1-20.7
	c-8.3-68.2-43.4-117.6-105.2-147.3C312.9,72.2,278.2,68,242.2,73.5C155.4,86.5,88.8,163,88.5,250.6c-0.2,76.2-0.1,85-0.1,161.2v7.6
	L451.9,419.5z"/>
<g>
	<defs>
		<rect id="SVGID_1_" x="142.5" y="131.2" width="255.3" height="253"/>
	</defs>
	<clipPath id="SVGID_2_">
		<use xlink:href="#SVGID_1_"  style="overflow:visible;"/>
	</clipPath>
	<g class="st2">
		
			<image style="overflow:visible;enable-background:new    ;" width="2295" height="2275" xlink:href="433114C9F12D8BFF.png"  transform="matrix(0.11 0 0 0.11 142.51 132.2995)">
		</image>
	</g>
</g>
</svg>
