<?xml version="1.0" encoding="utf-8"?>
<!-- Generator: Adobe Illustrator 22.0.1, SVG Export Plug-In . SVG Version: 6.00 Build 0)  -->
<svg version="1.1" id="Layer_1" xmlns="http://www.w3.org/2000/svg" xmlns:xlink="http://www.w3.org/1999/xlink" x="0px" y="0px"
	 viewBox="0 0 540.3 491.1" style="enable-background:new 0 0 540.3 491.1;" xml:space="preserve">
<style type="text/css">
	.st0{opacity:0.1;fill:#4480C2;enable-background:new    ;}
	.st1{fill:#FFFFFF;}
</style>
<title>badges</title>
<polygon class="st0" points="104.1,98.1 83.4,278.5 147.8,359.4 233.7,425.9 268.3,441.7 333.9,406.6 407.6,340.8 457,259.1 
	444.1,180.4 431.9,95.2 273.8,49.4 "/>
<path class="st1" d="M503.2,214.2c3.8,1,7.6,1.7,11.4,2.3c-10.4,12.3-19.4,24.2-29.7,34.6c-9.8,9.9-13,20-9.9,33.8
	c3.2,14.2,3.7,29,5.5,44.4c-10.4-2.8-19.9-5.5-29.5-8c-5.4-1.4-11.7-4.9-16.2-3.4s-7.3,8-10.6,12.5
	c-37.1,49.9-84.9,86.5-140.6,113.2c-9.1,4.4-18.3,4.1-27.3-0.2c-58.6-28.2-108.1-67.3-145.6-120.8c-3.3-4.7-6.3-5.5-11.5-4
	c-12.7,3.7-25.5,7-39.2,10.6c1.4-12.7,2.7-24.9,4.1-37c0.7-6,1-12.1,2.5-17.9c1.6-6.3-0.4-10.5-4.5-15.1
	c-11.3-12.5-22.2-25.4-33.3-38.2c-0.9-1-1.7-2.2-3.1-4c13.6-3.7,26.5-7.3,39.4-10.9c2.9-0.8,5.9-1.5,8.8-2.2
	c11.9-2.9,11.7-2.9,13-14.8c3.1-29.2,6.3-58.4,9.6-87.6c1.2-10.2,7-16.8,17.1-19.3c47.9-12.3,95.8-24.8,143.8-36.5
	c8.4-2,17.1-2,25.5,0c48.1,11.7,95.9,24.4,143.9,36.5c10.5,2.7,15.8,9.6,17,19.5c3.7,30.8,6.9,61.6,10,92.4c0.5,5,1.8,7.6,7.4,8.8
	c12.5,2.8,18,4.1,30.4,7.7C493,211.1,503.2,214.2,503.2,214.2z M92.7,255.7c-0.2,11.1,2.2,17.6,11.7,33.7
	c37.1,62.6,89.1,108.8,154.3,140.8c8,3.9,14.9,4,22.9,0.1c67-33,120.2-80.9,157.4-145.9c5.2-9.1,9.9-18.5,8.6-29.6
	c-5.5-50-11-100-16.4-150c-0.6-5.6-3-8.9-8.9-10.4C375,82.6,328,70.2,280.7,58.5c-6.8-1.6-14-1.7-20.8,0
	c-47.3,11.7-94.4,24-141.6,35.9c-5.7,1.4-8.5,4.4-9.1,10.3c-2.9,27.8-6.1,55.6-9.1,83.4C97.6,211,95.1,234,92.7,255.7z"/>
<g id="E7qCRt">
	<path class="st1" d="M267.7,144.2c-13.4-14.4-34.7-22.2-56.9-20.9c-30.1,1.7-56.8,23.5-63.6,52.4c-5.5,23.1-1.1,44.8,11.5,64.8
		c4.3,6.6,9.6,12.5,15.6,17.6l18.4-18.3c7.4-7.3,16.1-9.4,25.8-5.8c9.3,3.4,14.7,10.4,15.7,20.5c0.1,1.1,0.3,2.3,0.5,3.4
		c7.3,0.1,13.3,2.3,18.3,7.2s6.8,11.4,7.2,18.1c16,1.5,24.8,9.9,25.6,25.9c8.1-0.2,15.9,3.5,20.8,10c1.4,1.6,3.1,3,5,4
		c4.9,3,11.3,1.9,14.9-2.7c4.2-5,3.9-11.5-1.1-16.5c-17-17.1-34-34.2-51.1-51.2c-3.8-3.8-4.1-7.1-1.1-9.9s6.1-2.4,9.7,1.1
		c4.3,4.3,8.6,8.6,13,13c12.8,12.8,25.6,25.6,38.5,38.4c5.6,5.5,13.2,5.1,18-0.7c4.2-5.1,3.6-11.4-1.7-16.7c-17-17-34-34-50.9-51
		c-3.4-3.4-3.7-6.8-1.1-9.5s6.4-2.4,9.7,0.9c17,16.9,34,33.9,51,50.8c5.5,5.5,12.9,5.7,17.9,0.6s4.5-12-1-17.6
		c-23.7-23.8-47.5-47.5-71.2-71.3c-0.7-0.7-1.5-1.4-2.8-2.5c-0.3,0.6-0.6,1.2-1.1,1.8c-9.1,9.1-17.9,18.4-27.4,27.1
		c-18.5,16.9-47.8,14-63.1-6.2c9.4-9.4,18.9-18.8,28.5-28.3S258.1,153.8,267.7,144.2z M388.8,247.5c0.9-1.2,2-2.4,2.8-3.6
		c6.2-8.9,10.5-19,12.4-29.6c5.8-32.1-11.3-66.3-40.4-78c-30.7-12.4-59.5-6.9-84.3,14.3c-15.8,13.4-29.6,29-44.4,43.6
		c-2.2,2.2-4.5,4.5-6.7,6.8c11.8,8.2,28.4,6.3,38.7-4c9.9-10,19.8-19.9,29.8-29.8c4.5-4.5,7.3-4.4,11.9,0.1
		c6.8,6.8,13.6,13.6,20.4,20.3L388.8,247.5z M219.8,311.7c1.3-0.7,4.2-1.4,6.2-3.3c6.3-5.9,12.4-12,18.3-18.2
		c4.6-4.8,4.3-11.7-0.3-16.5c-4.4-4.6-11.7-4.8-16.4-0.4c0,0-0.1,0.1-0.1,0.1c-6.2,6-12.3,12.1-18.2,18.3c-3.4,3.3-4.3,8.4-2.1,12.6
		C209.4,309,213.1,311.4,219.8,311.7L219.8,311.7z M273.9,308.2c-0.8-5.4-3.2-8.9-7.4-11.1s-8.8-2.1-12.4,1.2
		c-6.6,6.2-13.1,12.6-19.3,19.2c-4.6,5-3.9,12,0.8,16.4c4.6,4.5,12,4.4,16.5-0.2c5.8-5.7,11.7-11.3,17.2-17.3
		C271.4,314.2,272.4,311,273.9,308.2L273.9,308.2z M256.7,350.2c0.7,5.7,3.3,9.3,7.9,11.5c4.4,2.1,9.6,1.2,13-2.3
		c5.7-5.6,11.4-11.4,17.1-17c5.3-5.2,5.7-12,1-17c-5.1-5.4-12-5.5-17.5-0.2c-5.8,5.6-11.5,11.2-17,17.1
		C259.1,344.5,258.1,347.5,256.7,350.2z M179.9,273.5c0.7,5.6,3.2,9.3,7.9,11.4c4.3,2.2,9.6,1.3,12.9-2.2c6-6,12.1-11.9,18-18
		c4.5-4.4,4.5-11.6,0.1-16.1c-0.1-0.1-0.2-0.2-0.4-0.3c-4.4-4.7-11.7-4.9-16.4-0.5c0,0-0.1,0.1-0.1,0.1c-6.2,6-12.4,12-18.2,18.4
		C182,268.1,181.2,271,179.9,273.5L179.9,273.5z"/>
</g>
</svg>
