<svg xmlns="http://www.w3.org/2000/svg" viewBox="0 0 238.16 212.52"><defs><style>.cls-1,.cls-2{fill:#1e8cf9;}.cls-1{opacity:0.1;}.cls-3{fill:none;stroke:#1e8cf9;stroke-miterlimit:10;stroke-width:10px;}</style></defs><title>happy-deed-large</title><g id="Layer_2" data-name="Layer 2"><g id="Layer_1-2" data-name="Layer 1"><polygon class="cls-1" points="23.92 211.95 22.16 205.53 159.74 208.84 214.18 208.84 218.91 182.27 212.05 187.1 218.91 112.14 205.37 66.67 187.86 38.18 163.63 15.33 137.9 6.89 109.05 3.88 68.97 18.65 39.87 47.27 26.8 81.33 19.16 121.94 23.92 211.95"/><path class="cls-2" d="M19.2,164H0c2.13-6.36,4.07-12.12,6-17.89,2.11-6.31,4.34-12.59,6.26-19,.51-1.66.51,11.32,0,9.67C8.71,125.85,5,115,1.27,104,.92,103,.59,101.88.09,100.3H19.54c3.31-33.15,17.09-59.5,40.93-79.15A90.24,90.24,0,0,1,120.4,0c46.58.52,92.37,39.31,98.34,100h19.42c-2.55,7.62-4.93,14.74-7.33,21.85-1.59,4.73-3.45,9.38-4.72,14.22-.6,2.28-.66-10,0-7.81,3.56,11.23,7.45,22.35,11.22,33.5.19.57.32,1.15.58,2.1H218.87c0,5.8.07,23.14,0,37.67,0,8-2.81,11-10.13,10.93-21.7-.09-43.4-.31-65.1-.3q-57,0-114,.32c-7.68,0-10.44-2.89-10.45-11.4,0-18.42,0,1.08,0-17.34ZM211.34,203.9v-4.44c0-41.77,0-45.62,0-87.39a107.62,107.62,0,0,0-.57-11.64c-4.18-38.29-22-66-53.38-82.68-16.58-8.82-34.23-11.16-52.51-8.12-44,7.33-77.88,50.3-78,99.46-.1,42.82,0,47.7,0,90.51v4.3Z"/><path class="cls-3" d="M162,119.14c0,26.2-19.2,47.44-42.89,47.44s-42.9-21.24-42.9-47.44"/><line class="cls-3" x1="67.92" y1="119.14" x2="83.75" y2="119.14"/><line class="cls-3" x1="153.94" y1="115.71" x2="170.15" y2="119.14"/><ellipse class="cls-2" cx="99.2" cy="82.87" rx="10.54" ry="19.9"/><ellipse class="cls-2" cx="138.87" cy="82.87" rx="10.54" ry="19.9"/></g></g></svg>