<svg xmlns="http://www.w3.org/2000/svg" viewBox="0 0 96.18 85.83"><defs><style>.cls-1,.cls-2{fill:#1e8cf9;}.cls-1{opacity:0.1;}.cls-3{fill:none;stroke:#1e8cf9;stroke-miterlimit:10;stroke-width:10px;}</style></defs><title>happy-deed-small</title><g id="Layer_2" data-name="Layer 2"><g id="Layer_1-2" data-name="Layer 1"><polygon class="cls-1" points="9.66 85.6 8.95 83 64.51 84.34 86.5 84.34 88.41 73.61 85.64 75.56 88.41 45.29 82.94 26.92 75.87 15.42 66.08 6.19 55.69 2.78 44.04 1.57 27.86 7.53 16.1 19.09 10.82 32.84 7.74 49.25 9.66 85.6"/><path class="cls-2" d="M7.75,66.25H0c.86-2.57,1.64-4.9,2.43-7.23.85-2.55,1.75-5.08,2.53-7.66.2-.67.2,4.57,0,3.9C3.52,50.83,2,46.42.51,42c-.14-.43-.27-.87-.48-1.5H7.89c1.34-13.39,6.9-24,16.53-32A36.48,36.48,0,0,1,48.62,0C67.44.22,85.93,15.88,88.34,40.4h7.84c-1,3.08-2,6-3,8.82C92.58,51.14,91.83,53,91.31,55c-.24.92-.26-4,0-3.16,1.44,4.54,3,9,4.53,13.53.08.23.13.47.24.85H88.39c0,2.34,0,9.34,0,15.21,0,3.24-1.14,4.43-4.09,4.42-8.77,0-17.53-.13-26.3-.12-15.35,0-30.69.08-46,.13-3.11,0-4.22-1.17-4.22-4.61,0-7.44,0,.44,0-7Zm77.6,16.09V80.55c0-16.87,0-18.42,0-35.29a43.25,43.25,0,0,0-.23-4.7C83.42,25.1,76.21,13.91,63.56,7.17A32.65,32.65,0,0,0,42.35,3.89c-17.79,3-31.46,20.31-31.5,40.17,0,17.29,0,19.26,0,36.55v1.73Z"/><path class="cls-3" d="M65.44,48.12c0,10.58-7.75,19.15-17.32,19.15S30.79,58.7,30.79,48.12"/><line class="cls-3" x1="27.43" y1="48.12" x2="33.82" y2="48.12"/><line class="cls-3" x1="62.17" y1="46.73" x2="68.71" y2="48.12"/><ellipse class="cls-2" cx="40.06" cy="33.47" rx="4.26" ry="8.03"/><ellipse class="cls-2" cx="56.08" cy="33.47" rx="4.26" ry="8.03"/></g></g></svg>