<svg id="Layer_1" data-name="Layer 1" xmlns="http://www.w3.org/2000/svg" xmlns:xlink="http://www.w3.org/1999/xlink" viewBox="0 0 611.42 265.62"><defs><style>.cls-1{fill:none;}.cls-2{fill:#012f49;}.cls-3{fill:#fff;}.cls-4{clip-path:url(#clip-path);}.cls-5{fill:#5cbda9;}.cls-6{fill:#ef6b3a;}.cls-7{fill:#1e8cf9;}</style><clipPath id="clip-path" transform="translate(11.42 65.22)"><path class="cls-1" d="M71.43,9.15H108.9q12.67,0,19.32,1.94a33.91,33.91,0,0,1,15.31,9.35,44.36,44.36,0,0,1,9.69,16.45q3.33,9.72,3.33,24a66.67,66.67,0,0,1-3.12,21.61,44.81,44.81,0,0,1-10.87,17.94q-5.34,5.19-14.41,8.1-6.78,2.14-18.14,2.14H71.43Zm20.5,17.17V93.57h15.31c5.72,0,9.86-.32,12.39-1a18.93,18.93,0,0,0,8.28-4.22q3.28-3,5.37-9.8T135.35,60q0-11.77-2.07-18.07a23.38,23.38,0,0,0-5.82-9.84A19.54,19.54,0,0,0,118,27.29q-4.29-1-16.83-1ZM327.19,9.15h37.47q12.68,0,19.32,1.94a33.91,33.91,0,0,1,15.31,9.35A44.36,44.36,0,0,1,409,36.89q3.33,9.72,3.33,24a66.67,66.67,0,0,1-3.12,21.61,44.81,44.81,0,0,1-10.87,17.94q-5.34,5.19-14.41,8.1-6.78,2.14-18.14,2.14H327.19Zm20.5,17.17V93.57H363q8.58,0,12.39-1a18.93,18.93,0,0,0,8.28-4.22q3.29-3,5.37-9.8T391.11,60q0-11.77-2.07-18.07a23.38,23.38,0,0,0-5.82-9.84,19.54,19.54,0,0,0-9.49-4.78q-4.29-1-16.83-1Zm-186.9,84.35V9.15h75.27V26.32H181.28V48.83h51V65.94h-51V93.57H238v17.1Zm80.31,0V9.15h75.28V26.32H261.6V48.83h51V65.94h-51V93.57h56.72v17.1Z"/></clipPath></defs><title>deedit_logo_web-3</title><rect class="cls-2" x="11.42" y="65.22" width="600" height="120"/><path class="cls-3" d="M423,110.85V9.33h20.5V110.85Z" transform="translate(11.42 65.22)"/><path class="cls-3" d="M478,110.85V26.5H447.89V9.33h80.68V26.5H498.51v84.35Z" transform="translate(11.42 65.22)"/><g class="cls-4"><polygon class="cls-5" points="69.36 0 214.46 64.39 287.69 14.33 69.36 0"/><polygon class="cls-6" points="0 156.07 154.39 217.57 226.46 74.39 0 156.07"/><polygon class="cls-7" points="81.36 10 0 156.07 226.46 74.39 81.36 10"/><polygon class="cls-5" points="154.39 217.57 226.46 74.39 240.88 265.62 154.39 217.57"/><polygon class="cls-7" points="226.46 74.39 326.41 137.25 240.88 265.62 226.46 74.39"/><polygon class="cls-6" points="299.69 24.33 226.46 74.39 326.41 137.25 299.69 24.33"/><polygon class="cls-5" points="252.52 17.27 326.41 137.25 465.4 137.25 252.52 17.27"/><polygon class="cls-6" points="240.88 265.62 326.41 137.25 477.18 136.92 240.88 265.62"/><polygon class="cls-7" points="258.22 20.48 481.43 24.33 465.4 137.25 258.22 20.48"/><polygon class="cls-5" points="228.88 255.62 453.4 127.25 460.94 250.62 228.88 255.62"/><polygon class="cls-6" points="469.43 14.33 453.4 127.25 599.58 119.52 469.43 14.33"/><polygon class="cls-7" points="460.94 250.62 599.58 119.52 453.4 127.25 460.94 250.62"/></g></svg>