<svg id="Layer_1" data-name="Layer 1" xmlns="http://www.w3.org/2000/svg" xmlns:xlink="http://www.w3.org/1999/xlink" viewBox="0 0 624.12 376.97"><defs><style>.cls-1{font-size:141.83px;fill:none;}.cls-1,.cls-3,.cls-4{font-family:Arial-BoldMT, Arial;font-weight:700;}.cls-2{fill:#012f49;}.cls-3,.cls-4{isolation:isolate;font-size:139.97px;}.cls-3{fill:#efefef;}.cls-4{fill:#fff;}.cls-5{clip-path:url(#clip-path);}.cls-6{fill:#5cbda9;}.cls-7{fill:#1e8cf9;}.cls-8{fill:#ef6b3a;}.cls-9{fill:#e9a64c;}.cls-10{clip-path:url(#clip-path-2);}.cls-11{clip-path:url(#clip-path-3);}.cls-12{clip-path:url(#clip-path-4);}</style><clipPath id="clip-path" transform="translate(23.75 200.98)"><text class="cls-1" transform="translate(51.47 110.7)">D</text></clipPath><clipPath id="clip-path-2" transform="translate(23.75 200.98)"><text class="cls-1" transform="translate(307.23 110.7)">D</text></clipPath><clipPath id="clip-path-3" transform="translate(23.75 200.98)"><text class="cls-1" transform="translate(140.76 110.69)">E</text></clipPath><clipPath id="clip-path-4" transform="translate(23.75 200.98)"><text class="cls-1" transform="translate(221.07 110.69)">E</text></clipPath></defs><title>deedit-logo</title><g id="Layer_2" data-name="Layer 2"><g id="Layer_1-2" data-name="Layer 1-2"><rect class="cls-2" x="24.75" y="202.27" width="599.37" height="117.83"/><text class="cls-3" transform="translate(427.33 311.85)">I</text><text class="cls-4" transform="translate(458.88 311.85)">T</text><g class="cls-5"><polygon class="cls-6" points="233.26 258.93 278.74 301.87 162.08 357.13 85 199.98 233.26 258.93"/><polygon class="cls-7" points="87.6 160.42 43.78 316.26 115.22 316.66 144.07 233.49 87.6 160.42"/><polygon class="cls-8" points="87.6 160.42 124.16 226.75 271.16 190.49 152.26 126.35 87.6 160.42"/><polygon class="cls-8" points="133.98 265.51 29.54 195.18 222.19 259.46 133.98 265.51"/><polygon class="cls-9" points="271.16 190.49 304.01 289.7 144.07 233.49 124.16 226.75 271.16 190.49"/><polygon class="cls-6" points="336.58 233.53 450.85 284.07 233.26 258.93 336.58 233.53"/><polygon class="cls-8" points="278.74 301.87 278.74 301.87 450.85 284.07 233.26 258.93 278.74 301.87"/><polygon class="cls-6" points="152.26 126.35 364.65 126.35 271.16 190.49 152.26 126.35"/><polygon class="cls-7" points="336.58 233.53 364.65 126.35 271.16 190.49 336.58 233.53"/><polygon class="cls-9" points="450.85 284.07 364.65 126.35 336.58 233.53 450.85 284.07"/><polygon class="cls-7" points="135.67 376.97 317.9 362.08 278.74 301.87 135.67 376.97"/><polygon class="cls-9" points="450.85 284.07 317.9 362.08 278.74 301.87 450.85 284.07"/><polygon class="cls-9" points="0 342.47 275.41 346.62 122.36 287.04 0 342.47"/></g><g class="cls-10"><polygon class="cls-7" points="87.6 160.42 43.68 271.03 135.67 215.73 87.6 160.42"/><polygon class="cls-8" points="87.6 160.42 135.67 215.73 271.16 190.49 152.26 126.35 87.6 160.42"/><polygon class="cls-8" points="43.68 271.03 135.67 215.73 233.26 258.93 43.68 271.03"/><polygon class="cls-9" points="271.16 190.49 336.58 233.53 233.26 258.93 135.67 215.73 271.16 190.49"/><polygon class="cls-9" points="43.68 271.03 135.67 376.97 160.43 263.58 43.68 271.03"/><polygon class="cls-6" points="233.26 258.93 278.74 301.87 135.67 376.97 160.43 263.58 233.26 258.93"/><polygon class="cls-7" points="336.58 233.53 450.85 284.07 233.26 258.93 336.58 233.53"/><polygon class="cls-8" points="278.74 301.87 278.74 301.87 450.85 284.07 233.26 258.93 278.74 301.87"/><polygon class="cls-6" points="152.26 126.35 364.65 126.35 271.16 190.49 152.26 126.35"/><polygon class="cls-7" points="336.58 233.53 364.65 126.35 271.16 190.49 336.58 233.53"/><polygon class="cls-9" points="450.85 284.07 364.65 126.35 324.44 228.16 450.85 284.07"/><polygon class="cls-7" points="135.67 376.97 317.9 362.08 278.74 301.87 135.67 376.97"/><polygon class="cls-9" points="450.85 284.07 317.9 362.08 278.74 301.87 450.85 284.07"/></g><g class="cls-11"><polygon class="cls-7" points="87.6 160.42 43.68 271.03 135.67 215.73 87.6 160.42"/><polygon class="cls-8" points="87.6 160.42 135.67 215.73 271.16 190.49 152.26 126.35 87.6 160.42"/><polygon class="cls-8" points="43.68 271.03 135.67 215.73 233.26 258.93 43.68 271.03"/><polygon class="cls-9" points="218.17 172.16 336.58 233.53 232.52 263.23 138.2 232.07 218.17 172.16"/><polygon class="cls-6" points="221.12 259.7 278.74 301.87 155.24 366.7 160.43 263.58 221.12 259.7"/><polygon class="cls-7" points="336.58 233.53 450.85 284.07 221.12 259.7 336.58 233.53"/><polygon class="cls-8" points="278.74 301.87 278.74 301.87 450.85 284.07 221.12 259.7 278.74 301.87"/><polygon class="cls-6" points="152.26 126.35 364.65 126.35 271.16 190.49 152.26 126.35"/><polygon class="cls-7" points="336.58 233.53 364.65 126.35 271.16 190.49 336.58 233.53"/><polygon class="cls-9" points="450.85 284.07 364.65 126.35 336.58 233.53 450.85 284.07"/><polygon class="cls-7" points="135.67 376.97 317.9 362.08 278.74 301.87 135.67 376.97"/><polygon class="cls-9" points="450.85 284.07 317.9 362.08 278.74 301.87 450.85 284.07"/></g><g class="cls-12"><polygon class="cls-7" points="87.6 160.42 43.68 271.03 135.67 215.73 87.6 160.42"/><polygon class="cls-8" points="87.6 160.42 135.67 215.73 271.16 190.49 152.26 126.35 87.6 160.42"/><polygon class="cls-8" points="43.68 271.03 135.67 215.73 233.26 258.93 43.68 271.03"/><polygon class="cls-9" points="271.16 190.49 387.57 213.42 230.14 271.75 135.67 215.73 271.16 190.49"/><polygon class="cls-9" points="43.68 271.03 135.67 376.97 160.43 263.58 43.68 271.03"/><polygon class="cls-6" points="233.26 258.93 278.74 301.87 135.67 376.97 160.43 263.58 233.26 258.93"/><polygon class="cls-7" points="336.58 233.53 328.36 281.36 233.26 258.93 336.58 233.53"/><polygon class="cls-8" points="278.74 301.87 278.74 301.87 450.85 284.07 220.99 259.71 278.74 301.87"/><polygon class="cls-6" points="152.26 126.35 364.65 126.35 271.16 190.49 152.26 126.35"/><polygon class="cls-6" points="330.98 208.97 298.32 0 249.03 233.24 330.98 208.97"/><polygon class="cls-9" points="450.85 284.07 364.65 126.35 336.58 233.53 450.85 284.07"/><polygon class="cls-7" points="135.67 376.97 317.9 362.08 278.74 301.87 135.67 376.97"/><polygon class="cls-9" points="450.85 284.07 317.9 362.08 278.74 301.87 450.85 284.07"/></g></g></g></svg>