<svg xmlns="http://www.w3.org/2000/svg" xmlns:xlink="http://www.w3.org/1999/xlink" viewBox="0 0 611.42 265.62"><defs><style>.cls-1{fill:none;}.cls-2{fill:#012f49;}.cls-3{fill:#fff;}.cls-4{clip-path:url(#clip-path);}.cls-5{fill:#5cbda9;}.cls-6{fill:#ef6b3a;}.cls-7{fill:#1e8cf9;}</style><clipPath id="clip-path"><path class="cls-1" d="M82.86,74.37h37.46q12.68,0,19.33,1.94A33.93,33.93,0,0,1,155,85.66a44.42,44.42,0,0,1,9.7,16.44q3.32,9.74,3.32,24a66.67,66.67,0,0,1-3.12,21.61A44.81,44.81,0,0,1,154,165.65q-5.32,5.19-14.4,8.1-6.79,2.15-18.15,2.14H82.86Zm20.5,17.17v67.25h15.3q8.59,0,12.4-1a18.85,18.85,0,0,0,8.27-4.23q3.3-3,5.37-9.79t2.08-18.6q0-11.78-2.08-18.07a23.18,23.18,0,0,0-5.82-9.84,19.51,19.51,0,0,0-9.48-4.78q-4.31-1-16.83-1ZM338.62,74.37h37.46q12.68,0,19.32,1.94a33.91,33.91,0,0,1,15.31,9.35,44.42,44.42,0,0,1,9.7,16.44q3.31,9.74,3.32,24a66.67,66.67,0,0,1-3.12,21.61,44.81,44.81,0,0,1-10.87,17.94q-5.34,5.19-14.4,8.1-6.79,2.15-18.15,2.14H338.62Zm20.5,17.17v67.25h15.3q8.59,0,12.4-1a18.85,18.85,0,0,0,8.27-4.23q3.3-3,5.37-9.79t2.08-18.6q0-11.78-2.08-18.07a23.18,23.18,0,0,0-5.82-9.84,19.51,19.51,0,0,0-9.48-4.78q-4.31-1-16.83-1ZM172.21,175.89V74.37h75.28V91.54H192.71v22.51h51v17.1h-51v27.64h56.72v17.1Zm80.31,0V74.37H327.8V91.54H273v22.51h51v17.1H273v27.64h56.72v17.1Z"/></clipPath></defs><title>logo-app-2</title><g id="Layer_2" data-name="Layer 2"><g id="Layer_1-2" data-name="Layer 1"><rect class="cls-2" x="11.42" y="65.22" width="600" height="120"/><path class="cls-3" d="M434.41,176.07V74.55h20.5V176.07Z"/><path class="cls-3" d="M489.43,176.07V91.72H459.31V74.55H540V91.72H509.93v84.35Z"/><g class="cls-4"><polygon class="cls-5" points="69.36 0 214.46 64.39 287.69 14.33 69.36 0"/><polygon class="cls-6" points="0 156.07 154.39 217.57 226.46 74.39 0 156.07"/><polygon class="cls-7" points="81.36 10 0 156.07 226.46 74.39 81.36 10"/><polygon class="cls-5" points="154.39 217.57 226.46 74.39 240.88 265.62 154.39 217.57"/><polygon class="cls-7" points="226.46 74.39 326.41 137.25 240.88 265.62 226.46 74.39"/><polygon class="cls-6" points="299.69 24.33 226.46 74.39 326.41 137.25 299.69 24.33"/><polygon class="cls-5" points="252.52 17.27 326.41 137.25 465.4 137.25 252.52 17.27"/><polygon class="cls-6" points="240.88 265.62 326.41 137.25 477.18 136.92 240.88 265.62"/><polygon class="cls-7" points="258.22 20.48 481.43 24.33 465.4 137.25 258.22 20.48"/><polygon class="cls-5" points="228.88 255.62 453.4 127.25 460.94 250.62 228.88 255.62"/><polygon class="cls-6" points="469.43 14.33 453.4 127.25 599.58 119.52 469.43 14.33"/><polygon class="cls-7" points="460.94 250.62 599.58 119.52 453.4 127.25 460.94 250.62"/></g></g></g></svg>