<?xml version="1.0" encoding="UTF-8"?>
<svg width="41px" height="41px" viewBox="0 0 41 41" version="1.1" xmlns="http://www.w3.org/2000/svg" xmlns:xlink="http://www.w3.org/1999/xlink">
    <!-- Generator: Sketch 48.2 (47327) - http://www.bohemiancoding.com/sketch -->
    <title>Remove</title>
    <desc>Created with Sketch.</desc>
    <defs>
        <path d="M0,20 C0,8.954305 8.95187636,0 20,0 L20,0 C31.045695,0 40,8.95187636 40,20 L40,20 C40,31.045695 31.0481236,40 20,40 L20,40 C8.954305,40 0,31.0481236 0,20 L0,20 Z" id="path-1"></path>
    </defs>
    <g id="UI-elemets" stroke="none" stroke-width="1" fill="none" fill-rule="evenodd">
        <g id="Remove" transform="translate(0.527206, 0.796054)">
            <g id="Button" transform="translate(20.000000, 20.000000) scale(-1, 1) translate(-20.000000, -20.000000) ">
                <use fill="#FFFFFF" fill-rule="evenodd" xlink:href="#path-1"></use>
                <path stroke="#00539F" stroke-width="2" d="M1,20 C1,30.4949813 9.50573212,39 20,39 C30.4949813,39 39,30.4942679 39,20 C39,9.50501867 30.4942679,1 20,1 C9.50501867,1 1,9.50573212 1,20 Z"></path>
            </g>
            <g transform="translate(11.000000, 20.000000)" id="Stroke-1" stroke="#00539F" stroke-width="1.2">
                <path d="M0,0 L18,0"></path>
            </g>
        </g>
    </g>
</svg>