<?xml version="1.0" encoding="UTF-8"?>
<svg width="58px" height="79px" viewBox="0 0 58 79" version="1.1" xmlns="http://www.w3.org/2000/svg" xmlns:xlink="http://www.w3.org/1999/xlink">
    <!-- Generator: Sketch 50.2 (55047) - http://www.bohemiancoding.com/sketch -->
    <title>Path 4 Copy</title>
    <desc>Created with Sketch.</desc>
    <defs></defs>
    <g id="Page-1" stroke="none" stroke-width="1" fill="none" fill-rule="evenodd">
        <path d="M15.1439536,37.1710201 C14.4884479,33.050412 8.96189392,7.47773021 15.7994594,7.47773021 C20.3578363,7.47773021 23.3967543,17.7879003 24.9162133,38.4082405 C23.3967543,13.6638323 24.9162133,1.29162816 29.4745902,1.29162816 C34.0329672,1.29162816 35.5524262,13.6638323 34.0329672,38.4082405 C35.5524262,16.1382731 38.5913441,5.4156962 43.1497211,6.2405098 C49.9872865,7.47773021 43.1497211,34.6965792 43.1497211,37.1710201 C43.1497211,39.6454609 46.4495109,18.4070859 52.266475,21.2916282 C58.0834391,24.1761704 50.1454624,39.8683057 50.1454624,47.2916282 C50.1454624,54.7149506 58.37354,73.8212199 36.3121557,76.7620732 C21.6045661,78.722642 14.7670007,70.8991604 15.7994594,53.2916282 C3.81091235,42.5445561 -0.648207258,34.5445561 2.42210053,29.2916282 C7.02756222,21.4122363 15.7994594,41.2916282 15.1439536,37.1710201 Z" id="Path-4-Copy" stroke="#002E4A" stroke-width="3" transform="translate(27.940090, 39.174176) rotate(7.000000) translate(-27.940090, -39.174176) "></path>
    </g>
</svg>